<?xml version="1.0" encoding="utf-8"?>
<!-- Generator: Adobe Illustrator 24.0.1, SVG Export Plug-In . SVG Version: 6.00 Build 0)  -->
<svg version="1.0" id="Camada_1" xmlns="http://www.w3.org/2000/svg" xmlns:xlink="http://www.w3.org/1999/xlink" x="0px" y="0px"
	 viewBox="0 0 432.92 538.4" style="enable-background:new 0 0 432.92 538.4;" xml:space="preserve">
<style type="text/css">
	.st0{fill-rule:evenodd;clip-rule:evenodd;fill:url(#SVGID_1_);}
	.st1{fill-rule:evenodd;clip-rule:evenodd;fill:#FFFFFF;}
	.st2{fill-rule:evenodd;clip-rule:evenodd;fill:#464D67;}
	.st3{fill:#000B11;}
	.st4{fill:#FFFFFF;}
	.st5{fill-rule:evenodd;clip-rule:evenodd;fill:#000B11;}
	.st6{clip-path:url(#SVGID_3_);fill:url(#SVGID_4_);}
	.st7{clip-path:url(#SVGID_6_);fill:url(#SVGID_7_);}
	.st8{clip-path:url(#SVGID_9_);fill:url(#SVGID_10_);}
	.st9{clip-path:url(#SVGID_12_);fill:url(#SVGID_13_);}
	.st10{clip-path:url(#SVGID_15_);fill:url(#SVGID_16_);}
	.st11{clip-path:url(#SVGID_18_);fill:url(#SVGID_19_);}
	.st12{clip-path:url(#SVGID_21_);fill:url(#SVGID_22_);}
	.st13{clip-path:url(#SVGID_24_);fill:url(#SVGID_25_);}
	.st14{clip-path:url(#SVGID_27_);fill:url(#SVGID_28_);}
	.st15{clip-path:url(#SVGID_30_);fill:url(#SVGID_31_);}
	.st16{clip-path:url(#SVGID_33_);fill:url(#SVGID_34_);}
	.st17{clip-path:url(#SVGID_36_);fill:url(#SVGID_37_);}
	.st18{clip-path:url(#SVGID_39_);fill:url(#SVGID_40_);}
	.st19{clip-path:url(#SVGID_42_);fill:url(#SVGID_43_);}
	.st20{clip-path:url(#SVGID_45_);fill:url(#SVGID_46_);}
	.st21{clip-path:url(#SVGID_48_);fill:url(#SVGID_49_);}
	.st22{clip-path:url(#SVGID_51_);fill:url(#SVGID_52_);}
	.st23{clip-path:url(#SVGID_54_);fill:url(#SVGID_55_);}
	.st24{clip-path:url(#SVGID_57_);fill:url(#SVGID_58_);}
	.st25{clip-path:url(#SVGID_60_);fill:url(#SVGID_61_);}
	.st26{clip-path:url(#SVGID_63_);fill:url(#SVGID_64_);}
	.st27{clip-path:url(#SVGID_66_);fill:url(#SVGID_67_);}
	.st28{clip-path:url(#SVGID_69_);fill:url(#SVGID_70_);}
	.st29{clip-path:url(#SVGID_72_);fill:url(#SVGID_73_);}
	.st30{clip-path:url(#SVGID_75_);fill:url(#SVGID_76_);}
	.st31{fill:#FFFFFF;stroke:#000B11;stroke-width:0.01;stroke-miterlimit:10;}
	.st32{fill:url(#SVGID_77_);stroke:#000B11;stroke-width:0.1;stroke-miterlimit:10;}
	.st33{fill:url(#SVGID_78_);stroke:#000B11;stroke-width:0.1;stroke-miterlimit:10;}
	.st34{fill:url(#SVGID_79_);stroke:#000B11;stroke-width:0.1;stroke-miterlimit:10;}
	.st35{fill:url(#SVGID_80_);stroke:#000B11;stroke-width:0.1;stroke-miterlimit:10;}
	.st36{fill:url(#SVGID_81_);stroke:#000B11;stroke-width:0.1;stroke-miterlimit:10;}
	.st37{fill:url(#SVGID_82_);stroke:#000B11;stroke-width:0.1;stroke-miterlimit:10;}
	.st38{fill:url(#SVGID_83_);stroke:#000B11;stroke-width:0.1;stroke-miterlimit:10;}
	.st39{fill:url(#SVGID_84_);stroke:#000B11;stroke-width:0.1;stroke-miterlimit:10;}
	.st40{fill:url(#SVGID_85_);stroke:#000B11;stroke-width:0.1;stroke-miterlimit:10;}
	.st41{fill:#FFFFFF;stroke:#000B11;stroke-width:0.1;stroke-miterlimit:10;}
</style>
<g>
	<g id="Escudo">
		<linearGradient id="SVGID_1_" gradientUnits="userSpaceOnUse" x1="216.4578" y1="596.1842" x2="216.4578" y2="65.3574">
			<stop  offset="0" style="stop-color:#BE8D51"/>
			<stop  offset="0.58" style="stop-color:#FBF2C9"/>
			<stop  offset="1" style="stop-color:#BE8D51"/>
		</linearGradient>
		<path class="st0" d="M432.89,214.15c1.22-85.65-37.79-177.12-37.79-177.12S322.58,0,216.08,0c-112,0-178,36.82-178,36.82
			S-2.89,131.7,0.16,214.49C8.36,436.9,216.81,538.4,216.81,538.4S429.84,428.54,432.89,214.15z"/>
		<g>
			<path class="st1" d="M411.68,240.64c6.38-70.54-18.14-134.82-20.86-141.58l0,0l0,0l0,0c-33.39-26.63-99.2-45.04-174.49-45.04
				c-75.22,0-141.21,18.26-174.51,44.88l0,0l0,0c0,0-28.11,67.39-21.35,142.03c16.96,187.01,195.81,280.87,195.81,280.87
				S394.72,427.63,411.68,240.64z"/>
		</g>
		<g>
			<path class="st2" d="M401.32,243.14c6.05-66.81-17.17-127.67-19.75-134.08l0,0l0,0l0,0c-31.62-25.21-93.93-42.65-165.25-42.65
				c-71.23,0-133.71,17.29-165.25,42.51l0,0l0,0c0,0-26.62,63.83-20.22,134.51C46.91,420.51,216.28,509.4,216.28,509.4
				S385.26,420.24,401.32,243.14z"/>
		</g>
	</g>
	<g id="Bola">
		<path class="st3" d="M325.93,283.5c14.97,2.69,24.94,17,22.25,31.97c-2.67,14.99-16.99,24.95-31.96,22.27
			c-14.98-2.67-24.94-16.98-22.27-31.97C296.65,290.78,310.94,280.82,325.93,283.5z"/>
		<path class="st4" d="M310.16,328.26c-2-0.74-5.94-4.83-7.08-6.68c-0.66,0.51-1.28,1.02-1.85,1.55c2.9,4.63,7.42,8.25,12.91,9.92
			C312.82,331.97,311.19,330.34,310.16,328.26z M317.39,324.23c0.24,0.1,0.65,0.26,1.15,0.42c0.88,0.31,2.28,0.73,3.87,1.03
			c1.87,0.33,3.61,0.41,5.17,0.21c1.9-1.75,3.95-4.16,6.31-7.39c-0.11-3.33-2.41-7.45-3.39-9.09c-0.11-0.17-0.18-0.31-0.27-0.44
			c-0.41-0.08-0.83-0.15-1.24-0.23c-1.91-0.34-3.59-0.55-5.22-0.77c-1-0.13-1.92-0.24-2.88-0.4c-0.14,0.12-0.37,0.3-0.67,0.57
			c-0.73,0.61-1.41,1.26-2.06,1.9c-1.34,1.37-3.13,3.41-4.03,5.44c0.81,2.76,1.77,5.9,3.18,8.73
			C317.34,324.21,317.36,324.22,317.39,324.23z M314.14,333.05c0.05,0.01,0.08,0.03,0.11,0.03
			C314.22,333.08,314.18,333.06,314.14,333.05L314.14,333.05z M309.19,296.42c-2.16,2.21-4.44,4.68-6.44,7.65
			c0.01,0.18,0.06,0.47,0.11,0.86c0.08,0.63,0.26,1.62,0.51,2.74c0.39,1.77,1.11,4.23,2.3,6.04c0.48,0.07,1,0.18,1.6,0.28
			c0.79,0.15,1.62,0.29,2.45,0.43c1.3,0.23,2.64,0.46,3.87,0.69c1.58-3.47,5.42-6.81,6.78-7.92c-0.67-2.22-1.2-4.59-1.72-6.87
			c-0.14-0.68-0.3-1.4-0.47-2.1c-1.3-0.71-3.18-1.33-5.08-1.66h-0.01l0.04-0.13h-0.01l-0.03,0.13
			C311.5,296.26,310.08,296.2,309.19,296.42z M327.45,326.52c-1.57,0.18-3.3,0.11-5.17-0.23c-2.33-0.42-4.24-1.14-5.09-1.48
			c-1.63,1.55-4.84,3.15-6.29,3.46c1.32,2.49,3.49,4.28,4.84,5.2c0.39,0.09,0.78,0.17,1.17,0.23c3.06,0.54,6.11,0.48,8.98-0.13
			c0.25-0.13,0.47-0.27,0.7-0.39c1.31-0.77,2.51-1.59,3.53-2.49C329.09,330.05,328.22,328.68,327.45,326.52z M300.89,322.59
			c-0.01,0-0.01-0.02-0.02-0.02l0,0C300.88,322.58,300.88,322.59,300.89,322.59z M305.06,313.89c-2.06-3.24-2.77-8.28-2.94-9.66
			c-0.75-0.17-2.18-0.55-3.22-1.04c-0.38,1.1-0.68,2.24-0.88,3.42c-1.02,5.73,0.14,11.35,2.86,15.97c0.62-0.54,1.26-1.06,1.94-1.59
			C302.58,318.32,304.08,315.46,305.06,313.89z M341.27,299.07L341.27,299.07c0.02,0.05,0.04,0.09,0.06,0.13
			C341.32,299.16,341.29,299.12,341.27,299.07z M327.03,294.08c1.76,0.72,6.21,4.62,7.36,6.13c2.63-0.01,4.92,0.41,6.67,1.23
			c0.04-0.45,0.09-0.9,0.12-1.3c0.04-0.41,0.08-0.77,0.1-1.07c-2.88-5.01-7.61-8.93-13.43-10.7c-0.55,0.2-1.13,0.37-1.69,0.43
			C326.49,290.02,326.94,292.23,327.03,294.08z M309.27,295.77c0.96-0.18,2.34-0.12,3.94,0.17c1.92,0.34,3.87,0.98,5.23,1.7
			c1.24-0.82,5.74-3.14,7.95-3.56c-0.09-1.88-0.59-4.25-0.9-5.4c-0.75-0.35-1.48-0.77-2.24-1.21l-0.01-0.02
			c-5.08-0.48-9.98,0.7-14.11,3.17C308.9,292.37,309.02,294.47,309.27,295.77z M340.69,319.3c-0.02,2.07-0.59,4.22-1.72,6.38
			c2.52-3.01,4.31-6.7,5.05-10.84c0.17-0.98,0.29-1.95,0.32-2.93C343.91,313.84,342.87,316.99,340.69,319.3z M328.09,332.99
			c2.52-0.78,4.83-1.99,6.91-3.55c-1.62,0.87-3.04,1.24-4.19,1.49C330.03,331.65,329.1,332.35,328.09,332.99z M334.5,300.84
			c-0.59,2.89-1.92,5.68-3.69,7.87c0.94,1.52,3.49,5.93,3.7,9.6c0.16,0.04,0.35,0.07,0.54,0.12c1.48,0.27,4.06,0.46,5.15,0.5
			c2.64-2.76,3.53-6.91,3.76-8.13c0.02-0.13,0.04-0.23,0.04-0.29c-0.29-2.73-1.7-6.29-2.88-8.31c-0.93-0.48-2.03-0.86-3.29-1.06
			C336.82,300.93,335.69,300.84,334.5,300.84z"/>
	</g>
	<g id="Leão">
		<path class="st5" d="M208.27,336.14c1.13,0.92,3.49,0.69,4.8,0.71c1.2,0.01,3.51,0.06,4.65-0.36l2.09-0.79l-0.26-2.2
			c-0.12-1.07-0.58-2.36-0.99-3.36c-1.99-4.74-5.65-8.8-10.41-10.88c-2.67-1.14-5.41-1.36-8.28-1.51c-1.5-0.09-3.87-0.15-5.19-0.9
			c-0.46-0.27-0.79-0.62-1.07-1.07c-0.79-1.28-2.41-4.49-2.64-6.49c0.19-0.1,0.38-0.19,0.54-0.26c0.9-0.42,1.8-0.85,2.68-1.31
			c2.38-1.22,4.72-2.63,6.72-4.43c2.99-2.68,5.04-7.24,5.53-11.31l3.8-5.48l-26.07-7.46l-18.46,20.94l0.54,1.58
			c1.16,3.34,2.42,6.7,3.77,9.97c0.86,2.06,1.76,4.16,2.79,6.14c1.24,2.36,2.86,4.71,4.41,6.86c2.08,2.91,4.3,5.79,6.57,8.59
			l0.42,0.83l1.21,0.33c3.7,1.06,7.93,1.75,11.74,2.21c2.66,0.33,7.74,0.75,10.38-0.12L208.27,336.14z"/>
		<g>
			<defs>
				<path id="SVGID_2_" d="M203.65,290.98c0,0-0.44,6.4-4.67,10.2c-4.23,3.79-10.3,5.64-10.74,6.5c-0.43,0.88-0.11,4.69,2.92,9.62
					c3.03,4.92,10.1,2.12,15.84,4.61c5.75,2.48,8.24,7.76,8.91,9.36c0.69,1.61,0.79,2.56,0.79,2.56s-0.62,0.24-3.6,0.18
					c-2.97-0.04-3.03-0.04-3.03-0.04s-0.38-2.86-3.34-5.53c-2.97-2.65-8-3.13-8-3.13s5.35,2.6,6.59,4.77
					c1.24,2.15,1.29,3.62,1.29,3.62s-2.48,0.81-9.13,0c-6.65-0.81-11.3-2.14-11.3-2.14s-8.04-9.75-10.85-15.18
					c-2.82-5.42-6.41-15.72-6.41-15.72l16.17-18.34l20.49,5.86L203.65,290.98z"/>
			</defs>
			<clipPath id="SVGID_3_">
				<use xlink:href="#SVGID_2_"  style="overflow:visible;"/>
			</clipPath>
			
				<linearGradient id="SVGID_4_" gradientUnits="userSpaceOnUse" x1="175.7726" y1="304.4118" x2="178.3485" y2="304.4118" gradientTransform="matrix(6.6789 13.3703 -11.9424 5.9656 2649.1765 -3867.9246)">
				<stop  offset="0" style="stop-color:#BE8D51"/>
				<stop  offset="0.58" style="stop-color:#FBF2C9"/>
				<stop  offset="1" style="stop-color:#BE8D51"/>
			</linearGradient>
			<polygon class="st6" points="148.07,292.71 178.48,353.56 237.57,324.06 207.17,263.21 			"/>
		</g>
		<g>
			<defs>
				<path id="SVGID_5_" d="M194.44,304.35c-3.09,1.74-5.9,2.75-6.19,3.33c-0.43,0.88-0.1,4.69,2.92,9.62
					c0.28,0.45,0.59,0.84,0.93,1.18l0,0c-5.11,0.9-11.93-11.61-11.93-11.61s0.8-2.05,5.81-3.2
					C188.48,303.1,191.76,303.66,194.44,304.35"/>
			</defs>
			<clipPath id="SVGID_6_">
				<use xlink:href="#SVGID_5_"  style="overflow:visible;"/>
			</clipPath>
			
				<linearGradient id="SVGID_7_" gradientUnits="userSpaceOnUse" x1="180.1083" y1="309.528" x2="183.6913" y2="309.528" gradientTransform="matrix(0.819 5.1757 -3.999 0.6328 1276.9364 -820.9926)">
				<stop  offset="0" style="stop-color:#BE8D51"/>
				<stop  offset="0.58" style="stop-color:#FBF2C9"/>
				<stop  offset="1" style="stop-color:#BE8D51"/>
			</linearGradient>
			<polygon class="st7" points="177.65,303.5 180.52,321.56 196.94,318.96 194.09,300.9 			"/>
		</g>
		<g>
			<defs>
				<path id="SVGID_8_" d="M206.46,332.7c0.16,0.62,0.17,0.98,0.17,0.98s-2.48,0.81-9.13,0c-6.65-0.81-11.3-2.14-11.3-2.14
					s-8.04-9.75-10.85-15.18c-2.82-5.42-6.41-15.72-6.41-15.72l1.59-1.79l2.23,3.58l6.33,2.45c0,0-2.51,1.37-0.74,6.73
					c1.76,5.36,9.53,14.71,9.53,14.71s3.67,1.34,5.83,1.6c2.15,0.26,5.99,0.54,7.51,2.18c1.51,1.64,1.52,2.6,1.52,2.6H206.46z
					 M215.15,329.64c0.36,0.68,0.62,1.25,0.78,1.61c0.69,1.61,0.79,2.56,0.79,2.56s-0.62,0.24-3.6,0.18
					c-2.97-0.04-3.03-0.04-3.03-0.04s-0.38-2.86-3.34-5.53c-2.54-2.25-6.57-2.94-7.69-3.1c-0.54-0.15-1-0.26-1.26-0.3
					c-1.02-0.18-1.86-0.2-1.86-0.2s2.14-1.4,7.45-0.23c5.29,1.19,6.59,3.25,7.67,4.63C212.15,330.61,214.47,330.34,215.15,329.64z"
					/>
			</defs>
			<clipPath id="SVGID_9_">
				<use xlink:href="#SVGID_8_"  style="overflow:visible;"/>
			</clipPath>
			
				<linearGradient id="SVGID_10_" gradientUnits="userSpaceOnUse" x1="178.448" y1="301.5708" x2="179.4554" y2="301.5708" gradientTransform="matrix(-9.213 12.7374 -13.1346 -9.5002 5793.4233 914.8458)">
				<stop  offset="0" style="stop-color:#BE8D51"/>
				<stop  offset="0.45" style="stop-color:#FBF2C9"/>
				<stop  offset="1" style="stop-color:#BE8D51"/>
			</linearGradient>
			<polygon class="st8" points="185.35,276.16 152.01,322.24 200.31,357.16 233.63,311.1 			"/>
		</g>
		<path class="st5" d="M302.48,244.09c-1.1,0.37-2.21,0.74-3.3,1.1c-1.17-0.74-2.35-1.49-3.53-2.23c0.72-0.67,1.49-1.34,2.26-1.94
			C299.43,242.05,300.96,243.08,302.48,244.09 M164.73,203.02c-2.65,1.68-5.27,3.8-6.86,6.28c-1.87,2.93-4.51,7.83-4.51,11.35
			c0,1.41,0,2.82,0,4.23c0,0.73,0,1.46,0,2.18c0.6-0.4,1.21-0.81,1.82-1.21c1.17-0.78,2.34-1.56,3.52-2.34
			c3.1-2.07,6.55-4.47,10.1-6.16c-1.71,2.65-3.25,5.54-4.22,8.38c-1.04,3.08-2.73,8.9-2.1,12.04c0.16,0.78,0.32,1.57,0.47,2.35
			c-0.81,0.4-1.62,0.81-2.42,1.21c-0.84,0.42-1.68,0.84-2.53,1.26c0.9,0.3,1.78,0.6,2.68,0.9c1.73,0.58,3.46,1.16,5.18,1.73
			c1.44,0.47,3.12,0.7,4.62,0.95c3.15,0.5,6.39,0.78,9.58,0.64c1.99-0.09,4-0.34,5.92-0.88c1.2-0.34,2.39-0.69,3.57-1.06
			c-1.25,1.1-2.81,1.81-3.25,3.7c-9.1-0.02-19.18,0.13-27.85-2.56c-5.7-1.78-10.47-4.72-14.72-8.9c-11.81-11.61,3.37-26.8-5.47-40.8
			c-2.83-4.47-6.91-7.67-11.88-9.46c-8.81-3.18-20.34-1.69-28.08,3.6c-3.9,2.67-7.45,5.96-10.25,9.78c-0.78,1.07-1.53,2.2-2.18,3.37
			c-0.86,0.25-1.7,0.58-2.48,0.96c-3.2,1.51-5.81,3.91-7.69,6.87c-1.76,2.76-2.73,5.64-3.67,8.73c-0.26,0.86-0.96,3.3-1.63,3.86
			c-0.04,0.03-0.09,0.07-0.15,0.09c-2.09,0.83-6.44-3.15-7.42-5.05c-0.11,5.06-0.94,10.09,3.05,14.05
			c4.77,4.74,12.75,4.54,18.9,3.54c6.57-1.06,11.62-4.6,13.72-11.07c1.73-5.33,1.05-12.46-0.65-17.82c0.65-1.22,1.77-2.52,2.76-3.38
			c3.93-3.41,9.44-4.17,14.45-3.88c3.61,0.2,7.64,1.09,9.77,4.32c3.4,5.2,1.19,15.22-0.19,20.9c-0.6,2.51-0.65,5.11-0.2,7.65
			c0.71,3.95,2.6,7.61,4.97,10.82c2.46,3.31,5.49,6.26,8.73,8.8c2.16,1.69,4.74,3.52,7.24,4.63c1.15,0.5,2.33,0.95,3.52,1.38
			c1.2,0.43,2.43,0.84,3.66,1.22c-1.67,2.56-3.28,5.17-4.8,7.83c-1.25,2.18-2.45,4.39-3.46,6.67c-2.07,4.63-5.93,14.97-11.37,16.29
			c-1.96,0.47-5.68,0.32-9.54-0.51c-0.73,1.37-0.46,0.87-1.18,2.21c-2.15,4.02-4.24,8.06-6.26,12.14c-1.2,2.42-2.39,4.84-3.48,7.32
			c-0.76,1.7-1.69,3.73-2,5.57c-0.51,3.04,1.34,6.56,2.88,9.09c1.43,2.35,3.08,4.61,4.84,6.72c0.18,0.21,0.36,0.42,0.56,0.65
			c0.25,0.11,0.5,0.21,0.77,0.3c3.69,1.53,8.47,2.76,12.46,2.85c2.47,0.04,5.91,0.07,8.24-0.65c0.14-0.04,0.28-0.07,0.41-0.12
			c0.56,0.05,1.11,0.08,1.67,0.11c2.52,0.17,6.41,0.2,8.77-0.63c1.56-0.53,3.34-0.91,4.15-2.52c0.71-1.3,1.13-3.01,1.2-4.49
			c0.19-3.71-1.57-6.94-4.4-9.22c-3.52-2.85-8.78-4.2-13.37-4.35c0-0.04,0-0.07,0-0.11c0.04-1.9,0.94-3.49,2.26-4.8
			c1.19-1.19,2.39-2.39,3.6-3.57c2.31,0.72,4.8,1.2,7.2,1.49c6.62,0.74,13.32-0.29,18.94-4c5.34-3.51,9.6-7.96,13.6-12.9
			c0.75-0.9,1.46-1.82,2.19-2.73c0.75,0.05,1.47,0.1,2.21,0.13c4.28,0.25,11.17,1.17,14.98,3.1c5.17,2.63,15.46,7.91,21.04,8.21
			c1.36,0.08,2.79,0.13,4.18,0.09c-0.25,0.87-0.5,1.74-0.82,2.58c-0.51,1.41-0.99,2.85-1.63,4.22c-0.23,0.47-0.47,0.96-0.71,1.44
			c0.23,0.5,0.45,0.99,0.68,1.49c1.27,2.82,2.46,5.66,3.54,8.57c0.63,1.68,1.23,3.43,1.66,5.19c1.08,4.38,4.25,9.54,7.07,13.03
			c0.21,0.27,0.42,0.53,0.65,0.81c0.32,0.11,0.66,0.2,0.97,0.3c5.75,1.84,12.75,2.97,18.79,3.04c2.84,0.03,5.92,0.09,8.71-0.39
			c0.89-0.17,1.78-0.42,2.53-0.95c0.63,0,1.25,0,1.88,0c2.71,0,6.84-0.57,8.73-2.7c2.32-2.6,0.85-6.74-0.79-9.33
			c-2.29-3.62-5.9-6.26-9.89-7.71c-3.09-1.14-6.26-2.14-9.48-2.8c-0.66-0.13-1.33-0.27-2.01-0.36c-1.49-1.58-5.08-5.45-5.93-7.17
			c0.41-0.99,1.51-2.62,2.2-3.6c0.44-0.06,0.89-0.14,1.32-0.2c1.98-0.33,4-0.96,5.87-1.64c3-1.07,5.9-2.44,8.6-4.13
			c0.53,0.35,1.06,0.71,1.57,1.07c0.02,0,0.04,0.02,0.05,0.02c2.62,1.5,5.58,2.25,8.58,2.44c4.32,0.26,8.69-0.45,12.74-1.93
			c1.77-0.64,3.66-1.46,5.24-2.48c3.03-1.95,4.94-3,6.76-5.25c-2.51-0.11-4.07-0.18-5.25-0.93c0.53-0.35,1.05-0.7,1.56-1.05
			c1.94-1.36,4.19-2.41,6.33-3.38c3.21-1.45,6.52-2.77,9.86-3.92c2.8,0.47,7.47,1.56,9.67,3.09c8.37,5.83,21.86-1.54,19.36-12.01
			c-1.46-6.14-7.83-15.45-14.82-15.45c-2.77,0-5.76,0.6-8.47,1.17c-3.8,0.8-7.57,1.8-11.29,2.96c-3.98,1.23-7.96,2.67-11.69,4.51
			c-1.06,0.52-2.17,0.94-3.31,1.29c0.07-0.1,0.14-0.2,0.2-0.29c0.41-0.56,0.81-1.12,1.2-1.67c-0.3-0.63-0.6-1.23-0.91-1.85
			c-0.9-1.85-1.81-3.71-2.7-5.57c0.44-0.3,0.89-0.6,1.34-0.9c0.99-0.67,1.99-1.36,2.98-2.04c-0.33,0.63-0.66,1.27-0.99,1.9
			c3.33-1.85,6.66-3.7,9.98-5.54c3.07-1.65,8.82-4.81,11-7.37c0.92-1.08,2.24-2.35,2.64-3.78c1.75-1.37,3.43-3.12,4.81-4.84
			c0.99-1.22,2.54-3.13,3.03-4.59c0.26-0.78,0.52-1.57,0.78-2.35c-0.66-0.49-1.32-0.99-1.99-1.48c-2.94-2.2-5.95-4.32-9.01-6.35
			c-1.87-1.23-3.76-2.44-5.71-3.53c-1.33-0.73-2.66-1.48-3.94-2.28c0.23-2.48,0.48-4.97,0.72-7.44c-0.74-0.34-1.51-0.67-2.24-1.01
			c-5.47-2.45-10.96-4.85-16.47-7.18c-2.99-1.26-5.98-2.5-9-3.68c-2.22-0.87-4.45-1.75-6.75-2.36c-3.15-0.84-8,1.13-10.92,2.38
			c-4.68,2.01-9.19,4.39-13.65,6.86c-4.3,2.37-8.56,4.83-12.77,7.36c-0.9-0.95-2.03-1.73-3.08-2.47c-1.34-0.94-2.68-1.89-3.95-2.96
			c-3.4-2.89-5.74-6.26-7.14-10.51c-0.19-0.55-0.36-1.12-0.53-1.68c-1.43-4.88-2.17-10.02-2.51-15.09
			c-0.17-2.39-0.28-4.82-0.21-7.22c0-0.32,0.01-0.65,0.03-0.98c0.01-0.17,0.01-0.33,0.01-0.51c-0.11-0.12-0.24-0.24-0.37-0.36
			c-0.23-0.23-0.45-0.46-0.69-0.69c-0.43-0.43-0.9-0.8-1.36-1.2c-1.05-0.91-2.11-1.81-3.17-2.71c-3.23-2.72-6.49-5.38-9.86-7.95
			c-3.83-2.93-11.75-8.94-16.42-9.56c-1.75-0.23-3.48,0.2-4.56,1.68c-1.78,2.44-0.27,5.33,1.16,7.49c0.95,1.4,2,2.73,3.09,4.02
			c-8.82-2.62-17.76-4.91-26.81-6.54c-8.12-1.47-16.51-3.61-24.06-7c-3.51-1.58-9.43-4.68-11.31-8.15
			c-2.18-4.02-3.22-10.37-3.23-14.93c0-1.49,0-2.97,0-4.45c0-0.76,0-1.53,0-2.3c-0.63,0.45-1.24,0.9-1.87,1.35
			c-1.19,0.88-2.39,1.75-3.59,2.62c-1.81,1.33-3.53,3.66-4.6,5.63c-2.76,5.1-3.3,11.01-2.41,16.68c0.36,2.27,1.13,4.41,2.26,6.4
			c0.05,1.54,0.1,3.08,0.14,4.62c0.06,1.64,0.47,3.44,0.93,5.01c1.15,3.83,3.06,7.41,5.54,10.53c2.48,3.13,6.5,5.45,10.16,7.12
			c0.01,0.34,0.04,0.67,0.05,1.01c0.11,2.15,1.83,4.67,3.22,6.26c4.23,4.92,11.01,8.89,16.76,11.82
			C155.29,199.87,159.95,201.82,164.73,203.02z"/>
		<g>
			<defs>
				<path id="SVGID_11_" d="M287.93,277.43c4.09-5.24,7.14-9.49,7.14-9.49s-2.83-5.77-6.04-12.67c-2.11-1.76-4.22-3.52-6.32-5.3
					c0.54,1.47,1.07,2.92,1.54,4.41c0.44,1.33,1.02,2.68,1.55,3.98c0.72,1.79,1.4,3.58,1.93,5.44c1.29,4.42,1.74,8.99,0.26,13.44
					L287.93,277.43z"/>
			</defs>
			<clipPath id="SVGID_12_">
				<use xlink:href="#SVGID_11_"  style="overflow:visible;"/>
			</clipPath>
			
				<linearGradient id="SVGID_13_" gradientUnits="userSpaceOnUse" x1="174.5301" y1="283.5345" x2="178.3389" y2="283.5345" gradientTransform="matrix(0.9866 5.1375 -3.0363 0.5831 975.7258 -808.0317)">
				<stop  offset="0" style="stop-color:#BE8D51"/>
				<stop  offset="0.58" style="stop-color:#FBF2C9"/>
				<stop  offset="1" style="stop-color:#BE8D51"/>
			</linearGradient>
			<polygon class="st9" points="277.63,250.96 283.16,279.72 300.15,276.44 294.62,247.7 			"/>
		</g>
		<g>
			<defs>
				<path id="SVGID_14_" d="M279.46,209.3c0,0-3.58-3.25-6.55-3.25c-2.97,0-6.32,5.45-6.32,5.45s2.97-1.6,5.01-1.6
					c2.03,0,2.75,0.88,2.75,0.88s-4.85,0.17-5.89,2.15c-1.05,1.98-0.54,4.57-0.54,4.57s2.19-3.68,4.25-4.26
					C274.24,212.65,279.46,209.3,279.46,209.3 M285.23,209.57c0,0-12.26,5.67-14.09,7.54c-1.81,1.88-5.01,9.52-5.01,9.52
					s-0.16-1.32-0.27-3.52c-0.11-2.2,0.78-3.14,0.78-3.14s-3.7-2.87-3.08-8.53c0.6-5.67,8.08-8.26,10.83-7.98
					c2.75,0.27,7.38,4.57,7.38,4.57S284.31,207.97,285.23,209.57z M307.1,251.28c0,0,8.12-4.34,10.05-6.6
					c1.93-2.26,1.93-2.37,1.93-2.37l-4.63-8.14c0,0,3.31-1.55,4.31-1.63c0.99-0.08,2.76,0.37,2.76,0.37l-4.31,1.72l2.92,5.91
					c0,0,2.24-1.71,4.4-4.39c2.16-2.68,2.44-3.52,2.44-3.52s-8.78-6.55-14.34-9.63c-5.55-3.08-5.88-3.63-5.88-3.63l0.68-6.97
					c0,0-25.07-11.26-31.7-13.03c-4.79-1.27-24.87,10.3-35.73,16.87c1.01,3.46-1.2,7.06-3.11,10.14c-1.54,2.48-3.7,8.72-4.22,12.71
					c1.57,4.71,3.29,8.21,3.29,8.21s0.75-4.15,2.51-8.42c1.77-4.27,3.54-6.41,3.54-6.41s0.6,7.59,2.59,12.55
					c1.98,4.95,6.72,11.12,6.82,15.32c0.11,4.2-2.66,7.73-2.66,7.73s4.92-1.37,6.73-6.93c1.81-5.56-0.28-10.67-0.28-10.67
					s-1.6-3.47-1.15-7.54c0.44-4.07,1.38-4.85,1.38-4.85s-1.21,5.4,1.7,12.22c2.92,6.82,14.6,16.77,18.01,26.26
					c3.43,9.5,0.24,17.23,0.24,17.23s7.67-9,10.41-17.26c2.76-8.25-2.24-16.83-3.73-21.45c-1.49-4.63-2.64-6.66-2.7-9.47
					c-0.05-2.8,3.3-4.35,3.3-4.35l-1.71,4.3c0,0,8.15,6.88,10.74,9.03c2.58,2.15,3.13,2.53,3.13,2.53s9.24-6.22,10.07-7.81
					c0.82-1.59,1.05-2.75,1.05-2.75l-7.28,2.42l-8.52-5.4c0,0,4.85-5.22,7.98-6.82c3.13-1.6,4.89-1.26,4.89-1.26l-3.79,2.31
					l9.74,6.55C309.01,244.35,309.4,246.88,307.1,251.28z"/>
			</defs>
			<clipPath id="SVGID_15_">
				<use xlink:href="#SVGID_14_"  style="overflow:visible;"/>
			</clipPath>
			
				<linearGradient id="SVGID_16_" gradientUnits="userSpaceOnUse" x1="176.6967" y1="302.4089" x2="178.3765" y2="302.4089" gradientTransform="matrix(26.3153 -18.5464 19.1871 27.2243 -10174.7861 -4708.1255)">
				<stop  offset="0" style="stop-color:#BE8D51"/>
				<stop  offset="0.58" style="stop-color:#FBF2C9"/>
				<stop  offset="1" style="stop-color:#BE8D51"/>
			</linearGradient>
			<polygon class="st10" points="263.98,338.17 372.04,262.02 295.68,153.69 187.63,229.85 			"/>
		</g>
		<g>
			<defs>
				<path id="SVGID_17_" d="M267.9,217.47c0.38-1.28,0.96-2.92,1.59-3.71c1.11-1.37,4.8-1.67,5.95-2.64
					c1.14-0.97,1.77-1.51,1.77-1.51s-3.31-2.21-5.61-1.54c-1.87,0.55-4.19,2.64-5,3.41c0.23-0.12,3.03-1.59,4.99-1.59
					c2.03,0,2.75,0.88,2.75,0.88s-4.85,0.17-5.89,2.15C267.46,214.8,267.85,217.21,267.9,217.47"/>
			</defs>
			<clipPath id="SVGID_18_">
				<use xlink:href="#SVGID_17_"  style="overflow:visible;"/>
			</clipPath>
			
				<linearGradient id="SVGID_19_" gradientUnits="userSpaceOnUse" x1="154.4157" y1="300.1162" x2="156.4317" y2="300.1162" gradientTransform="matrix(-1.9451 2.5113 -2.5039 -1.9394 1325.9872 403.7686)">
				<stop  offset="0" style="stop-color:#BE8D51"/>
				<stop  offset="0.45" style="stop-color:#FBF2C9"/>
				<stop  offset="1" style="stop-color:#BE8D51"/>
			</linearGradient>
			<polygon class="st11" points="270.58,202.28 261.73,213.7 273.22,222.6 282.07,211.18 			"/>
		</g>
		<g>
			<defs>
				<path id="SVGID_20_" d="M204.1,177.7c0,0-12.51,7.4-16.59,11.62c-4.07,4.21-3.34,5.74-2.7,5.6c0.66-0.15,15.92-3.93,20.28-4
					c4.37-0.07,7.56,0.08,7.56,0.08s-10.04,1.02-15.99,3.34c-5.96,2.32-9.31,4.36-8.64,5.6c0.65,1.23,10.1,6.4,14.39,7.41
					c4.28,1.02,11.85,1.53,11.85,1.53s-5.96,2.25-13.89,0.44c-7.91-1.82-13.37-5.6-13.37-5.6s-0.36,2.62,4.71,7.63
					c5.11,5.01,11.57,8.14,16.29,9.31c4.74,1.16,7.64,1.09,7.64,1.09s-4.16,2.53-12.3,0.35c-8.14-2.18-12.27-7.77-12.27-7.77
					s-4.43,0.07,0,6.03c4.43,5.96,11.05,8.87,15.92,11.05c4.86,2.18,12.08,1.68,12.08,1.68s-5.04,2.75-16.46-0.96
					c-11.41-3.71-15.98-13.88-16.56-15.84c-0.59-1.97,2.1-4.59,2.1-4.59s-5.01-6.18-5.23-8.65c-0.23-2.48,1.3-2.77,1.3-2.77
					s-1.24-1.23-1.16-2.18c0.08-0.94,0.16-1.02,0.16-1.02s-3.79-1.53-1.9-4.95C183.23,188.73,189.11,181.17,204.1,177.7
					 M228.36,250.62c-0.98,5.74-2.89,14.81-8.32,13.23c-2.39-0.68-2.45-6.01-2.39-8.02c-1.23,1.04-2.54,1.91-3.82,2.56
					c-3.07,1.57-6.61,2.29-10.07,2.14c-1.95-0.1-5.53-0.53-6.54-2.5c-0.24-0.49-0.35-1.04-0.28-1.59c0.23-1.74,1.86-2.36,3.19-3.07
					c1.31-0.69,2.45-1.45,3.57-2.41c-0.38,0.25-0.78,0.48-1.14,0.69c-1.43,0.78-3.05,1.23-4.65,1.48l-0.1,0.03h-0.02l-0.09,0.01
					l-0.03,0.01l-0.09,0.01h-0.03l-0.08,0.01h-0.02l-0.17,0.02l-0.05,0.01h-0.02l-0.23,0.02h-0.01h-0.02l-0.26,0.03h-0.01
					l-0.14,0.01h-0.02l-0.11,0.01h-0.04l-0.11,0.01l-0.14,0.01h-0.08H196l-0.09,0.01h-0.06l-0.01,0.01c-0.2,0-0.39,0.01-0.59,0.02
					h-0.02h-0.14h-0.05h-0.11h-0.16h-0.08h-0.14h-0.04h-0.06h-0.11h-0.04l-0.32-0.01h-0.01l-0.28-0.01h-0.05h-0.04
					c-0.97-0.04-1.94-0.17-2.81-0.4l-0.02,0c-0.79-0.21-1.48-0.5-2.03-0.9l0,0c-18.91-0.2-34.09,0.63-47.4-12.48
					c-13.48-13.25,1.99-28.83-5.97-41.41c-7.95-12.59-26.06-11.04-35.12-4.86c-9.06,6.19-12.02,13.31-12.02,13.31
					s-5.76,0.61-9.63,6.69c-3.86,6.08-3.21,12.47-7.07,14.02c-3.86,1.55-5.41-1.43-5.41-1.43s-0.22,10.38,18.11,7.39
					c18.34-2.97,9.94-25.62,9.94-25.62s3.52-11.56,21.07-10.57c17.55,0.99,16.04,15.76,12.72,29.45
					c-3.31,13.7,14.25,25.96,18.78,27.94c4.53,1.99,11.26,3.76,11.26,3.76s-7.28,10.48-10.6,17.89
					c-3.31,7.41-6.84,16.56-13.69,18.22c-6.84,1.66-8.51,0-8.51,0s-10.71,19.99-11.37,23.98c-0.66,3.96,6.96,13.03,6.96,13.03
					s6.07,2.48,11.24,2.59c5.17,0.12,7.15-0.48,7.15-0.48s0.5-3.86-3.8-6.51c-4.28-2.64-8.42-2.25-8.42-2.25s3.36-2.32,10.51,0.65
					c7.16,2.99,5.01,7.93,5.01,7.93s5.23,0.35,7.43-0.44c2.2-0.77,2.2-0.83,2.2-0.83s3.03-5.2-2.29-9.51
					c-5.29-4.3-14.01-3.54-14.01-3.54s-2.54-5.63,2.64-10.82c5.2-5.19,5.2-5.08,5.2-5.08s14.07,5.82,25.07-1.43
					c11.02-7.27,16.11-18,21.3-21.77c5.2-3.75,7.63-3.08,7.63-3.08s-4.28,2.62-6.36,5.04c-2.09,2.42-2.48,3.74-2.48,3.74
					s10.71,0.59,16.34,3.47c5.64,2.87,15.46,7.62,19.67,7.84c4.19,0.22,6.07-0.12,6.07-0.12c0.76-2.73,1.51-5.49,2.27-8.22
					c0,0-2.91-4.9-1.48-10.85c1.42-5.93,4.84-9.07,4.84-9.07s-2.82,5.94-2.93,9.36c-0.11,3.41,0.94,6.17,0.94,6.17
					s0.71-2.18,1.76-4.01c1.05-1.83,1.79-2.22,1.79-2.22s-5.43,22.39-6.87,26.26c-1.43,3.87-1.77,4.53-1.77,4.53
					s4.09,8.94,5.41,14.36c1.33,5.41,6.41,11.73,6.41,11.73s8.61,2.73,17.78,2.85c9.17,0.11,9.27-0.77,9.27-0.77
					s1.11-3.54-4.63-7.72c-5.74-4.21-11.6-3.42-11.6-3.42s5.73-2.25,12.33,1.45c6.6,3.69,7.7,9.12,7.7,9.12s4.84-0.04,6.16-1.52
					c1.33-1.5-1.21-8.58-9.29-11.56c-8.09-2.98-11.89-3.07-11.89-3.07s-7.44-7.45-7.88-10.23c-0.44-2.76,11.81-17.33,11.81-17.33
					s1.41-1.63,2.26-4.58c0.86-2.94,0.71-4.19,0.71-4.19s1,3.55,0.64,5.59c-0.35,2.02-1.05,3.79-1.05,3.79s5.01-5.38,4.84-11.09
					c-0.17-5.73-1.65-7.55-1.65-7.55s2.54,1.38,3.19,9.25c0.66,7.87-8.25,12.87-8.25,12.87c0.11-0.84,0.22-1.68,0.33-2.52
					c-2.11,2.77-4.22,5.53-6.33,8.3c0,0,8.51-1.38,16.47-7.56c0.15-0.12,0.29-0.23,0.44-0.35l0.68-1.63
					c0.53-1.33,0.87-3.2,1.03-4.62c0.42-3.71-0.02-7.46-1.29-10.97c-1.41-3.9-4.28-7.79-6.84-11.02c-2.09-2.65-4.29-5.21-6.38-7.85
					c-0.44-0.54-0.88-1.11-1.32-1.71c-0.05,1.79-0.33,3.56-0.84,5.09c-1.21,3.7-4.43,7.32-8.27,8.39l-6.63,1.85l4.22-5.42
					c1.25-1.63,2.23-4.23,2.17-6.28c-0.05-2.32-2.39-6.3-3.52-8.33c-1.11-2.01-2.27-4.07-3.13-6.2c-0.76-1.88-1.35-4.13-1.81-6.42
					c-0.04,0.11-0.08,0.21-0.13,0.3c-1,2.42-1.91,5.37-2.38,7.97l-1.22,6.78l-3.04-6.18c-1.24-2.51-2.76-6.2-3.85-8.53
					c0,0,2.35-10.5,4.89-14.59c2.54-4.09,4.2-7.18,1.99-9.94c-2.21-2.76-11.26-5.85-15.13-17.45c-3.86-11.6-3.42-25.18-3.42-25.18
					s-22.09-19.55-28.83-20.44c-6.73-0.88,11.71,17.12,11.71,17.12s-19.44-6.96-38.98-10.49c-19.55-3.54-34.13-10.16-37.77-16.9
					c-3.65-6.74-3.65-16.56-3.65-16.56s-7.72,5.63-5.62,18.99c2.09,13.37,22.19,19.99,31.91,23.75
					c9.73,3.76,27.63,10.27,27.63,10.27s-17.92-4.92-26.61-7.51c-8.69-2.59-20.2-6.93-24.61-9.58c-4.4-2.64-5.88-5.5-5.88-5.5
					s0.21,6.57,5.73,13.52c5.53,6.96,22.43,11.05,33.58,13.59c11.15,2.54,17.55,5.19,17.55,5.19s-17.35-3.35-24.39-3.96
					c-7.05-0.61-15.8-4.73-15.8-4.73s0.32,6.15,18.12,15.21c17.78,9.05,26.39,5.63,26.39,5.63s-14.02,4.53-18.11,10.93
					c-4.08,6.41-3.98,9.5-3.98,9.5s8.29-5.96,14.12-7.84c5.87-1.88,7.08-1.88,7.08-1.88s-7.63,8.4-10.16,15.9
					c-2.54,7.51-1.99,10.28-1.99,10.28s7.63-5.85,11.81-7.95c4.19-2.1,8.06-2.54,8.06-2.54s-6.51,6.85-9.77,9.78
					c-3.26,2.93-9.01,5.58-9.01,5.58s10.6,2.76,18.12,0.66c7.51-2.1,13.48-4.86,13.48-4.86s-3.9,6.65-5.94,8.91
					c-2.03,2.26-3.58,2.14-2.7,3.36c0.88,1.21,7.65,1.75,11.55-0.39c3.92-2.14,8.59-7.48,8.59-7.48s-0.47,6.39-4.31,9.99
					c-3.85,3.61-7.03,3.81-6.5,4.84c0.53,1.01,7.29,2.57,13.57-0.63c6.28-3.19,8.04-8.58,8.04-8.58s-1.48,9.02-0.72,11.43
					c0.78,2.43,0.99,5.3,4.34-1.26C225.68,255.6,227.07,252.99,228.36,250.62z"/>
			</defs>
			<clipPath id="SVGID_21_">
				<use xlink:href="#SVGID_20_"  style="overflow:visible;"/>
			</clipPath>
			
				<linearGradient id="SVGID_22_" gradientUnits="userSpaceOnUse" x1="172.5583" y1="302.6749" x2="176.3653" y2="302.6749" gradientTransform="matrix(8.4068 43.6121 -43.6421 8.4126 11915.4424 -9923.5195)">
				<stop  offset="0" style="stop-color:#BE8D51"/>
				<stop  offset="0.58" style="stop-color:#FBF2C9"/>
				<stop  offset="1" style="stop-color:#BE8D51"/>
			</linearGradient>
			<polygon class="st12" points="26.42,132.95 73.56,377.48 319.11,330.14 271.97,85.62 			"/>
		</g>
		<g>
			<defs>
				<path id="SVGID_23_" d="M111.26,189.06c-4.19,0.7-8.07,2.22-11,4.23c-9.06,6.19-12.02,13.31-12.02,13.31s-5.76,0.61-9.63,6.69
					c-3.86,6.08-3.21,12.47-7.07,14.02c-3.86,1.55-5.41-1.43-5.41-1.43s-0.01,0.64,0.24,1.56c0.63,0.66,1.49,1.3,2.69,1.87
					c4.67,2.21,9.43,0.77,12.23-6.02c2.79-6.8,2.96-9.53,5.68-11.26c2.72-1.72,4.52-1.72,4.52-1.72s-4.45,2.92-5.11,8.23
					c-0.67,5.31-0.2,8.24-3.32,11.02c-3.12,2.79-5.51,2.33-5.51,2.33s7.71,2.52,12.56-3.78c4.84-6.31,2.98-17.34,2.98-17.34
					s2.99,1.93,2.52,10.03c-0.1,1.75-0.44,3.52-0.93,5.2c3.46-7.67-0.5-18.34-0.5-18.34s3.52-11.56,21.07-10.57
					c17.55,0.99,16.04,15.76,12.72,29.45c-3.31,13.7,14.25,25.96,18.78,27.94c4.53,1.99,11.26,3.76,11.26,3.76
					s-7.28,10.48-10.6,17.89c-1.81,4.07-3.7,8.66-6.17,12.26c1.8-1.4,4.23-3.97,7.04-8.7c6.05-10.16,8.82-15.76,15.1-18.96
					c6.26-3.2,11.59-3.2,11.59-3.2s-29.31-1.59-38.9-16.12c-9.6-14.52-0.53-20.66-3.47-33.84c-2.94-13.19-16.39-13.86-22.39-12.93
					c-5.99,0.93-9.81,3.46-12.28,5.98c-2.45,2.53-4.19,6.59-4.19,6.59s-0.94-4.96,3.34-9.98
					C100.19,193.55,107.53,190.46,111.26,189.06"/>
			</defs>
			<clipPath id="SVGID_24_">
				<use xlink:href="#SVGID_23_"  style="overflow:visible;"/>
			</clipPath>
			
				<linearGradient id="SVGID_25_" gradientUnits="userSpaceOnUse" x1="174.8172" y1="304.5956" x2="177.6181" y2="304.5956" gradientTransform="matrix(-11.736 33.7897 -30.351 -10.5416 11421.8252 -2471.332)">
				<stop  offset="0" style="stop-color:#BE8D51"/>
				<stop  offset="0.45" style="stop-color:#FBF2C9"/>
				<stop  offset="1" style="stop-color:#BE8D51"/>
			</linearGradient>
			<polygon class="st13" points="77.83,155.32 35.32,277.68 163.26,322.12 205.75,199.75 			"/>
		</g>
		<g>
			<defs>
				<path id="SVGID_26_" d="M127.97,324.24c1.48-0.48,4.6-0.93,9.51,1.1c7.16,2.99,5.01,7.93,5.01,7.93s5.23,0.35,7.43-0.44
					c2.2-0.77,2.2-0.83,2.2-0.83s0.62-1.04,0.81-2.59l-6.19,0.48c0,0-4.52-5.87-9.43-6.72
					C133.38,322.48,129.42,323.72,127.97,324.24"/>
			</defs>
			<clipPath id="SVGID_27_">
				<use xlink:href="#SVGID_26_"  style="overflow:visible;"/>
			</clipPath>
			
				<linearGradient id="SVGID_28_" gradientUnits="userSpaceOnUse" x1="180.3938" y1="304.626" x2="184.2036" y2="304.626" gradientTransform="matrix(-5.1792 7.7082 -8.5571 -5.7496 3699.4817 662.1805)">
				<stop  offset="0" style="stop-color:#BE8D51"/>
				<stop  offset="0.67" style="stop-color:#FBF2C9"/>
				<stop  offset="1" style="stop-color:#BE8D51"/>
			</linearGradient>
			<polygon class="st14" points="135.73,310.94 122.83,330.15 145.17,345.15 158.06,325.95 			"/>
		</g>
		<g>
			<defs>
				<path id="SVGID_29_" d="M143.88,319.68c-4.17-1.05-8.06-0.72-8.06-0.72s-2.54-5.63,2.64-10.82c5.2-5.19,5.2-5.08,5.2-5.08
					s7.27,3.02,15.46,2.01c-3-2.11-8.7-5.56-15.31-6.74c-9.77-1.72-14.02-0.99-14.02-0.99l5.91,3.39c0,0-3.05,0.61-7.3,8.04
					c-4.24,7.44-2.88,12.85-2.88,12.85S132.04,319.93,143.88,319.68"/>
			</defs>
			<clipPath id="SVGID_30_">
				<use xlink:href="#SVGID_29_"  style="overflow:visible;"/>
			</clipPath>
			
				<linearGradient id="SVGID_31_" gradientUnits="userSpaceOnUse" x1="178.9653" y1="309.2058" x2="182.2152" y2="309.2058" gradientTransform="matrix(0.0336 7.6135 -8.6739 0.0383 2817.6272 -1068.4203)">
				<stop  offset="0" style="stop-color:#BE8D51"/>
				<stop  offset="0.58" style="stop-color:#FBF2C9"/>
				<stop  offset="1" style="stop-color:#BE8D51"/>
			</linearGradient>
			<polygon class="st15" points="124.04,296.62 124.17,321.77 159.22,321.62 159.12,296.46 			"/>
		</g>
		<g>
			<defs>
				<path id="SVGID_32_" d="M117.47,309.51c-1.87,3.9-3.4,7.38-3.63,8.81c-0.66,3.96,6.96,13.03,6.96,13.03s6.07,2.48,11.24,2.59
					c1.42,0.03,2.6,0,3.57-0.04c0.03-0.8-0.11-1.9-0.64-3.22c-1.26-3.23-9.83-4.25-9.83-4.25s-8.66-5.86-8.91-10.48
					C116.14,314.52,116.68,312.14,117.47,309.51"/>
			</defs>
			<clipPath id="SVGID_33_">
				<use xlink:href="#SVGID_32_"  style="overflow:visible;"/>
			</clipPath>
			
				<linearGradient id="SVGID_34_" gradientUnits="userSpaceOnUse" x1="163.0707" y1="299.0968" x2="167.7747" y2="299.0968" gradientTransform="matrix(5.8673 -5.7042 5.7115 5.8748 -2549.5869 -496.5446)">
				<stop  offset="0" style="stop-color:#BE8D51"/>
				<stop  offset="0.58" style="stop-color:#FBF2C9"/>
				<stop  offset="1" style="stop-color:#BE8D51"/>
			</linearGradient>
			<polygon class="st16" points="124.08,345.18 147.84,322.08 124.72,298.3 100.96,321.4 			"/>
		</g>
		<g>
			<defs>
				<path id="SVGID_35_" d="M267.19,274.87c0.75,0.74,2.3,2.97,2.8,8.93c0.66,7.87-8.25,12.87-8.25,12.87
					c0.11-0.84,0.22-1.68,0.33-2.52c-2.11,2.77-4.22,5.53-6.33,8.3c0,0,5.62-0.92,11.99-4.58c1.38-1.72,2.76-3.61,3.43-5.04
					c1.59-3.39,2.93-7.97-0.33-14.48c-3.28-6.53-8.26-9.58-8.26-9.58s1.01,0.81,2.78,3.08C266.02,272.72,266.66,273.8,267.19,274.87
					 M251,305.89c3.29-5.27,10.05-13.31,10.05-13.31s1.41-1.63,2.26-4.58c0.86-2.94,0.71-4.19,0.71-4.19s1,3.55,0.64,5.59
					c-0.35,2.02-1.05,3.79-1.05,3.79s0.88-0.95,1.88-2.45c0.32-0.96,0.61-2.13,0.63-3.15c0.05-2.24,0.05-2.39-1.26-6.05
					c-1.33-3.65-3.66-6.25-3.66-6.25s0.93,6.05-1.13,12.5C258.04,294.17,251.11,305.68,251,305.89z"/>
			</defs>
			<clipPath id="SVGID_36_">
				<use xlink:href="#SVGID_35_"  style="overflow:visible;"/>
			</clipPath>
			
				<linearGradient id="SVGID_37_" gradientUnits="userSpaceOnUse" x1="176.3285" y1="295.6843" x2="180.2495" y2="295.6843" gradientTransform="matrix(1.3714 7.1138 -4.9934 0.9626 1494.4939 -1265.7087)">
				<stop  offset="0" style="stop-color:#BE8D51"/>
				<stop  offset="0.58" style="stop-color:#FBF2C9"/>
				<stop  offset="1" style="stop-color:#BE8D51"/>
			</linearGradient>
			<polygon class="st17" points="244.1,270.1 251.82,310.18 280.99,304.55 273.28,264.49 			"/>
		</g>
		<g>
			<defs>
				<path id="SVGID_38_" d="M165.49,303.37c1.11-0.47,2.18-1.04,3.25-1.74c11.02-7.27,16.11-18,21.3-21.77
					c5.2-3.75,7.63-3.08,7.63-3.08s-4.28,2.62-6.36,5.04c-2.09,2.42-2.48,3.74-2.48,3.74s10.71,0.59,16.34,3.47
					c5.64,2.87,15.46,7.62,19.67,7.84c4.19,0.22,6.07-0.12,6.07-0.12c0.76-2.73,1.51-5.49,2.27-8.22c0,0-2.91-4.9-1.48-10.85
					c1.42-5.93,4.84-9.07,4.84-9.07s-2.82,5.94-2.93,9.36c-0.11,3.41,0.94,6.17,0.94,6.17s0.71-2.18,1.76-4.01
					c1.05-1.83,1.79-2.22,1.79-2.22s-5.43,22.39-6.87,26.26c-1.43,3.87-1.77,4.53-1.77,4.53s4.09,8.94,5.41,14.36
					c1.33,5.41,6.41,11.73,6.41,11.73s8.61,2.73,17.78,2.85c9.17,0.11,9.27-0.77,9.27-0.77s1.11-3.54-4.63-7.72
					c-5.74-4.21-11.6-3.42-11.6-3.42s5.73-2.25,12.33,1.45c6.6,3.69,7.7,9.12,7.7,9.12s4.84-0.04,6.16-1.52
					c0.67-0.76,0.36-2.9-1.12-5.23c-0.98,0.72-3.23,1.99-4.95,0.21c-2.27-2.32-7.3-7.37-14.48-6.77c-7.18,0.6-9.1,3.78-9.1,3.78
					s1.73-0.39,6.37,0.8c4.65,1.19,6.04,4.45,6.04,4.45s-14.33,0.54-17.32-4.38c-2.98-4.92-6.08-14.14-6.08-14.14
					s-0.4-2.3,1.57-4.15c1.96-1.84,7.27-1.17,7.27-1.17s-1.04-0.77-3.77-1.21c-2.74-0.44-6.73,0.54-6.73,0.54s1.23-14.87,2.43-21.78
					c1.19-6.91,4.35-13.02,4.35-13.02s-1.36,0.08-3.33,1.23c-1.96,1.16-3.01,3.02-3.01,3.02s-0.07-2.18,1.05-6.24
					c1.14-4.04,3.26-6.96,3.26-6.96s-6.98,1.79-11.16,9.35c-4.18,7.57-2.92,13.48-2.92,13.48s-7.24-0.27-15.54-4.25
					c-8.29-3.98-13.09-3.32-13.09-3.32s0.47-1.26,2.93-3.19c2.45-1.92,10.03-3.32,10.03-3.32s-8.44-1.19-14.34-0.4
					c-5.91,0.8-9.04,2.32-16.8,15.07C174.99,295.2,169.15,300.53,165.49,303.37"/>
			</defs>
			<clipPath id="SVGID_39_">
				<use xlink:href="#SVGID_38_"  style="overflow:visible;"/>
			</clipPath>
			
				<linearGradient id="SVGID_40_" gradientUnits="userSpaceOnUse" x1="175.4668" y1="301.3891" x2="177.8189" y2="301.3891" gradientTransform="matrix(-17.0926 25.83 -28.515 -18.8693 11821.9717 1445.6974)">
				<stop  offset="0" style="stop-color:#BE8D51"/>
				<stop  offset="0.45" style="stop-color:#FBF2C9"/>
				<stop  offset="1" style="stop-color:#BE8D51"/>
			</linearGradient>
			<polygon class="st18" points="200.05,211.53 131.43,315.21 244.41,389.97 313.01,286.28 			"/>
		</g>
		<g>
			<defs>
				<path id="SVGID_41_" d="M188.26,198.85c1.6,0.65,4.02,1.41,7.41,1.88c7.18,1,12.81,0.07,12.81,0.07s-4.08,2.22-5.91,2.52
					c-1.84,0.31-3.03,0.24-3.03,0.24s1.07,1.64,6.7,2.78c5.65,1.14,12.09,2.14,12.09,2.14s-1.88,0.3-4.51,0.54
					c0.29-0.08,0.44-0.14,0.44-0.14s-7.57-0.51-11.85-1.53c-4.29-1.01-13.73-6.18-14.39-7.41
					C187.84,199.62,187.94,199.26,188.26,198.85 M184.31,194.34c0.61-0.15,1.58-0.57,3.05-1.59c3.14-2.17,6.78-3.58,14.72-4.65
					c7.94-1.07,13.18,2.04,13.18,2.04l-0.36,1.84c0,0-0.04-0.77-3.81-0.8c0.98-0.13,1.57-0.19,1.57-0.19s-3.19-0.15-7.56-0.08
					c-4.36,0.08-19.63,3.85-20.28,4C184.58,194.97,184.33,194.79,184.31,194.34z"/>
			</defs>
			<clipPath id="SVGID_42_">
				<use xlink:href="#SVGID_41_"  style="overflow:visible;"/>
			</clipPath>
			
				<linearGradient id="SVGID_43_" gradientUnits="userSpaceOnUse" x1="161.1449" y1="302.5219" x2="164.952" y2="302.5219" gradientTransform="matrix(0.9199 4.7713 -6.5629 1.2653 2036.8347 -962.3044)">
				<stop  offset="0" style="stop-color:#BE8D51"/>
				<stop  offset="0.58" style="stop-color:#FBF2C9"/>
				<stop  offset="1" style="stop-color:#BE8D51"/>
			</linearGradient>
			<polygon class="st19" points="180.23,187.82 185.53,215.34 222.42,208.23 217.12,180.7 			"/>
		</g>
		<g>
			<defs>
				<path id="SVGID_44_" d="M228.27,235.73c0,0,0.4-5.91,1.72-10.36c1.33-4.45,3.4-7.31-1.2-10.9c-4.57-3.58-8.1-9.56-10.87-18.39
					c-2.79-8.83-2.33-17.79-2.33-17.79s-3.44,10.76,0.53,21.59c3.98,10.82,8.3,12.6,6.96,15c-1.33,2.39-13.39,3.59-22.56-0.66
					c-6.38-2.96-7.95-6.07-8.33-7.69c-3.24-1.47-5.18-2.82-5.18-2.82s-0.36,2.62,4.71,7.63c5.11,5.01,11.57,8.14,16.29,9.31
					c4.74,1.16,7.64,1.09,7.64,1.09s-0.14,0.08-0.4,0.2c3.11-0.43,6.78-1.14,6.78-1.14s-0.97,6.95-11.56,7.04
					c-10.59,0.08-18.63-8.71-19.19-11.09c-0.28-1.25-0.33-1.98-0.3-2.41c-0.63,0.06-3.95,0.6,0.09,6.03
					c4.43,5.96,11.05,8.87,15.92,11.05c4.86,2.18,12.08,1.68,12.08,1.68s-0.53,0.29-1.62,0.55c1.57-0.02,2.88-0.18,3.7-0.54
					C224.58,231.64,223.56,237.46,228.27,235.73"/>
			</defs>
			<clipPath id="SVGID_45_">
				<use xlink:href="#SVGID_44_"  style="overflow:visible;"/>
			</clipPath>
			
				<linearGradient id="SVGID_46_" gradientUnits="userSpaceOnUse" x1="168.9808" y1="301.6925" x2="172.7882" y2="301.6925" gradientTransform="matrix(2.2023 11.4279 -9.6026 1.8506 2730.5488 -2304.0886)">
				<stop  offset="0" style="stop-color:#BE8D51"/>
				<stop  offset="0.58" style="stop-color:#FBF2C9"/>
				<stop  offset="1" style="stop-color:#BE8D51"/>
			</linearGradient>
			<polygon class="st20" points="175.65,180.41 188.31,246.15 244.38,235.34 231.71,169.61 			"/>
		</g>
		<g>
			<defs>
				<path id="SVGID_47_" d="M220.9,261.53c0.54,0.96,1.4,0.65,3.56-3.57c1.17-2.29,2.51-4.81,3.76-7.11
					c1.16-4.08,1.72-7.81,1.72-7.81s-2.38,0.97-3.73,3.74c-1.37,2.78-0.97,3.59-3.04,10.04C222.22,259.8,221.46,261.05,220.9,261.53
					 M199.31,256.47c-0.14,0.17-0.17,0.33-0.08,0.53c0.53,1.01,7.29,2.57,13.57-0.63c5.16-2.64,7.27-6.74,7.85-8.12
					c1.48-5.69,3.89-9.26,3.89-9.26s-3.45,0.47-5.83,4.25c-2.39,3.79-1.6,7.91-8.36,11.29C205.37,257,201.18,256.77,199.31,256.47z
					 M189.66,249.36c-0.03,0.19,0.04,0.4,0.25,0.69c0.88,1.21,7.65,1.75,11.55-0.39c3.05-1.67,6.55-5.27,7.97-6.78
					c1.67-2.77,3.7-3.89,3.7-3.89s-2.19-0.47-6.71,1.13c-4.5,1.6-6.91,8.42-12.05,9.52C191.58,250.24,190.28,249.84,189.66,249.36z"
					/>
			</defs>
			<clipPath id="SVGID_48_">
				<use xlink:href="#SVGID_47_"  style="overflow:visible;"/>
			</clipPath>
			
				<linearGradient id="SVGID_49_" gradientUnits="userSpaceOnUse" x1="175.132" y1="304.5912" x2="178.0435" y2="304.5912" gradientTransform="matrix(-9.0092 0.0586 -0.0396 -6.0876 1807.7902 2094.4209)">
				<stop  offset="0" style="stop-color:#BE8D51"/>
				<stop  offset="0.5" style="stop-color:#FBF2C9"/>
				<stop  offset="1" style="stop-color:#BE8D51"/>
			</linearGradient>
			<polygon class="st21" points="229.94,238.26 189.48,238.52 189.63,262.76 230.1,262.49 			"/>
		</g>
		<g>
			<defs>
				<path id="SVGID_50_" d="M190.55,152.4c-0.35-0.1-0.66-0.18-0.96-0.23c-6.73-0.88,11.71,17.12,11.71,17.12l-0.56-0.2
					c7.66,3.86,10.48,3.93,10.48,3.93s-8-6.4-15.06-13.19C193.9,157.67,192.04,155.02,190.55,152.4"/>
			</defs>
			<clipPath id="SVGID_51_">
				<use xlink:href="#SVGID_50_"  style="overflow:visible;"/>
			</clipPath>
			
				<linearGradient id="SVGID_52_" gradientUnits="userSpaceOnUse" x1="178.887" y1="309.2885" x2="182.5849" y2="309.2885" gradientTransform="matrix(-10.1647 -3.8254 3.561 -9.4622 920.2974 3775.4006)">
				<stop  offset="0" style="stop-color:#BE8D51"/>
				<stop  offset="0.58" style="stop-color:#FBF2C9"/>
				<stop  offset="1" style="stop-color:#BE8D51"/>
			</linearGradient>
			<polygon class="st22" points="218.39,153.99 186.38,141.95 175.7,170.34 207.7,182.38 			"/>
		</g>
		<g>
			<defs>
				<path id="SVGID_53_" d="M120.69,125.52c-1.23,1.02-7.31,6.78-5.41,18.82c2.09,13.37,22.19,19.99,31.91,23.75
					c7.98,3.08,21.47,8.03,26.04,9.7c4.68,1.32,7.57,2.04,7.57,2.04s-3.32,0.66-4.32,2.52c-0.76,1.43,0.96,3.78,1.78,4.77
					c-3.34-1.73-9.83-4.85-16.92-6.83c-10.22-2.86-23.24-7.24-31.55-11.62c-5.81-3.08-9.99-8.76-11.97-11.88
					c0.29,2.1,1.4,7.19,5.62,12.51c5.53,6.96,22.43,11.05,33.58,13.59c11.15,2.54,17.55,5.19,17.55,5.19s-6.75-1.31-13.55-2.44
					c7.45,1.78,12.21,3.14,15.16,4.06c-0.68,0.82-1.3,1.91-1.64,3.27c-0.31,1.27,0.29,2.34,1.2,3.2
					c-4.37-0.81-11.78-2.41-20.19-5.06c-11.73-3.69-19.33-9.83-21.11-11.36c0.38,1.43,2.76,7.07,18.05,14.85
					c17.78,9.05,26.39,5.63,26.39,5.63s-10.41,3.37-15.92,8.4c1.42-0.94,3.2-2.01,5.26-3.03c3.58-1.76,8.4-2.88,11.35-3.46
					l-0.26,0.73c-0.44,1.27-0.26,2.73,0.19,4.13c-3.95,0.58-12.3,2.18-15.79,5.57c-2.77,2.68-5.26,5.88-6.84,8.03
					c0.9-0.64,8.55-6.02,14.03-7.77c5.87-1.88,7.08-1.88,7.08-1.88l-0.2,0.23c1.2-0.57,2.23-0.93,3.06-1.16
					c0.78,1.4,1.52,2.36,1.52,2.36s-0.56,2.19,1.58,6.52c-2.53,1.23-8.65,4.44-12.07,8.22c-4.37,4.85-6.04,10.02-6.04,10.02
					s7.63-5.85,11.81-7.95c4.19-2.1,8.06-2.54,8.06-2.54s-0.23,0.25-0.63,0.66c1.23-0.85,2.27-1.53,3.08-2.03l0.04,0.05
					c2.09,2.55,4.32,4.64,6.62,6.29c-1.64,1.61-5.07,4.65-9.53,6.92c-6.37,3.25-18.36,3.45-18.36,3.45s10.6,2.76,18.12,0.66
					c7.51-2.1,13.48-4.86,13.48-4.86l-0.17,0.27c1.1-1.08,2.12-2.13,2.95-2.99c3.39,1.26,6.79,1.67,9.95,1.33
					c7.37-0.79,13.34-4.78,13.34-4.78s-0.59,0.47-3.92,1.19c-0.57,0.13-1.21,0.23-1.87,0.3c0.17,0,0.26-0.01,0.26-0.01
					s-5.04,2.75-16.46-0.96c-11.41-3.71-15.98-13.88-16.56-15.84c-0.59-1.97,2.1-4.59,2.1-4.59s-5.01-6.18-5.23-8.65
					c-0.23-2.48,1.3-2.77,1.3-2.77s-1.24-1.23-1.16-2.18c0.08-0.94,0.16-1.02,0.16-1.02s-3.79-1.53-1.9-4.95
					c1.9-3.41,7.78-10.98,22.77-14.45c0,0-3.14-1.2-16.06-4.4c-12.93-3.2-50.78-11.19-62.36-21.59c-11.6-10.4-4.76-25.59-4.76-25.59
					L120.69,125.52z"/>
			</defs>
			<clipPath id="SVGID_54_">
				<use xlink:href="#SVGID_53_"  style="overflow:visible;"/>
			</clipPath>
			
				<linearGradient id="SVGID_55_" gradientUnits="userSpaceOnUse" x1="175.9428" y1="304.3465" x2="178.854" y2="304.3465" gradientTransform="matrix(-24.8038 0.3048 -0.3823 -31.111 4672.3828 9599.7363)">
				<stop  offset="0" style="stop-color:#BE8D51"/>
				<stop  offset="0.5" style="stop-color:#FBF2C9"/>
				<stop  offset="1" style="stop-color:#BE8D51"/>
			</linearGradient>
			<polygon class="st23" points="224.6,124.14 111.91,125.53 113.4,246.1 226.08,244.72 			"/>
		</g>
		<g>
			<defs>
				<path id="SVGID_56_" d="M292.77,274.87c3.31-0.52,6.75-1.39,9.7-2.84c9.16-4.52,24.85-8.27,29.94-8.27
					c5.07,0,10.38,8.16,11.47,12.8c1.11,4.65-2.65,7.41-2.65,7.41s-1.2-5.13-3.97-7.96c-2.76-2.84-5.35-4.48-8.55-4.24
					c-3.19,0.22-3.9,1.14-3.9,1.14s5.61-0.1,9.58,3.42c3.95,3.52,4.84,9.37,4.84,9.37s-5.62,1.92-9.42-0.72
					c-3.79-2.64-11.93-3.8-11.93-3.8s-12.2,4.12-17.83,7.99c-5.64,3.86-10.61,6.84-10.61,6.84l7.63,0.33c0,0-6.85,4.42-15.91,3.87
					c-3.85-0.24-6.57-1.49-8.41-2.86c4.57,0.41,9.11-7.02,13.24-14.16C288.67,279.91,290.2,278.28,292.77,274.87"/>
			</defs>
			<clipPath id="SVGID_57_">
				<use xlink:href="#SVGID_56_"  style="overflow:visible;"/>
			</clipPath>
			
				<linearGradient id="SVGID_58_" gradientUnits="userSpaceOnUse" x1="177.2501" y1="297.3766" x2="180.162" y2="297.3766" gradientTransform="matrix(3.7316 9.9119 -13.3124 5.0118 3600.6665 -2979.8147)">
				<stop  offset="0" style="stop-color:#BE8D51"/>
				<stop  offset="0.58" style="stop-color:#FBF2C9"/>
				<stop  offset="1" style="stop-color:#BE8D51"/>
			</linearGradient>
			<polygon class="st24" points="260.53,268.34 281.7,324.58 357.2,296.15 336.02,239.92 			"/>
		</g>
		<g>
			<defs>
				<path id="SVGID_59_" d="M328.23,273.32c1.88,0.43,4.21,1.28,6.15,3c3.95,3.52,4.84,9.37,4.84,9.37s-5.62,1.92-9.42-0.72
					c-3.79-2.64-11.93-3.8-11.93-3.8s-12.2,4.12-17.83,7.99c-5.64,3.86-10.61,6.84-10.61,6.84l7.63,0.33c0,0-6.85,4.42-15.91,3.87
					c-3.85-0.24-6.57-1.49-8.41-2.86c4.57,0.41,9.11-7.02,13.24-14.16c1.79-2.18,3.07-3.62,4.49-5.36
					c-1.42,2.64-3.02,5.88-3.63,8.04c-1.19,4.25-1.6,6.17-1.6,6.17s3.85-5.65,7.64-8.57c3.78-2.92,5.84-3.79,5.84-3.79l-3.59,6.25
					c0,0,10.5-4.39,16.14-6.71c5.65-2.32,13.41,0,16.6,1.46c3.18,1.47,7.17,2.62,8.03,2.65c0.87,0.04,1.24-0.21,1.24-0.21
					s-0.8-5.44-5.04-8.05C330.64,274.17,329.33,273.63,328.23,273.32 M343.49,281.02c-0.83,1.89-2.27,2.95-2.27,2.95
					s-1.2-5.13-3.97-7.96c-2.76-2.84-5.35-4.48-8.55-4.24c-3.19,0.22-3.9,1.14-3.9,1.14s0.69-2.72,6.63-2.56
					c5.94,0.18,8.92,3.09,10.51,5.56C343.07,277.64,343.51,279.27,343.49,281.02z"/>
			</defs>
			<clipPath id="SVGID_60_">
				<use xlink:href="#SVGID_59_"  style="overflow:visible;"/>
			</clipPath>
			
				<linearGradient id="SVGID_61_" gradientUnits="userSpaceOnUse" x1="171.1778" y1="298.3167" x2="173.0813" y2="298.3167" gradientTransform="matrix(-14.0733 8.5539 -7.2101 -11.8625 4879.165 2353.2537)">
				<stop  offset="0" style="stop-color:#BE8D51"/>
				<stop  offset="0.45" style="stop-color:#FBF2C9"/>
				<stop  offset="1" style="stop-color:#BE8D51"/>
			</linearGradient>
			<polygon class="st25" points="324.41,238.78 259.17,278.43 291.82,332.16 357.07,292.5 			"/>
		</g>
		<g>
			<defs>
				<path id="SVGID_62_" d="M302.35,219.25l-12.93-2.8l8.58,8.58l3.06,0.86l0.58,6.19l1.14-7.76l-3.08-0.61
					C299.71,223.71,301.64,221.07,302.35,219.25 M326.98,232.63c0,0-2.59-0.45-4.8-0.56c-2.19-0.1-3.5,0.49-3.5,0.49l-15.51-9.44
					l2.59-4.74c-7.43-5.06-10.87-3.12-20.71-4.43l10.82,12.15c0,0,0.4,2.85-2.93,6.11c-1.72,1.69-3.73,3.09-5.46,4.17l15.19-3.47
					l0.5-4.85l10.5,5.65c0,0,2.64,6.93,2.48,8.63c-0.17,1.71-9.05,8.93-9.05,8.93s8.12-4.34,10.05-6.6
					c1.93-2.26,1.93-2.37,1.93-2.37l-4.63-8.14c0,0,3.31-1.55,4.31-1.63c0.99-0.08,2.76,0.37,2.76,0.37l-4.31,1.72l2.92,5.91
					c0,0,2.24-1.71,4.4-4.39C326.7,233.46,326.98,232.63,326.98,232.63z"/>
			</defs>
			<clipPath id="SVGID_63_">
				<use xlink:href="#SVGID_62_"  style="overflow:visible;"/>
			</clipPath>
			
				<linearGradient id="SVGID_64_" gradientUnits="userSpaceOnUse" x1="170.3818" y1="297.3536" x2="172.8454" y2="297.3536" gradientTransform="matrix(-4.412 11.5417 -11.4578 -4.3799 4466.6367 -436.7594)">
				<stop  offset="0" style="stop-color:#BE8D51"/>
				<stop  offset="0.45" style="stop-color:#FBF2C9"/>
				<stop  offset="1" style="stop-color:#BE8D51"/>
			</linearGradient>
			<polygon class="st26" points="290.39,199.33 272.38,246.43 321.63,265.26 339.64,218.15 			"/>
		</g>
		<g>
			<defs>
				<path id="SVGID_65_" d="M283.49,250.63c1.4,2.71,4.38,8.41,5.87,10.99c2,3.46,3.19,6.11,3.19,6.11l-4.4,9.42l-0.15,0.2v-0.12
					c1.48-4.44,1.02-9-0.26-13.41c-0.53-1.85-1.21-3.65-1.93-5.44c-0.53-1.31-1.11-2.65-1.55-3.98c-0.47-1.49-1.01-2.94-1.54-4.41
					L283.49,250.63z"/>
			</defs>
			<clipPath id="SVGID_66_">
				<use xlink:href="#SVGID_65_"  style="overflow:visible;"/>
			</clipPath>
			
				<linearGradient id="SVGID_67_" gradientUnits="userSpaceOnUse" x1="176.1923" y1="284.1181" x2="179.2157" y2="284.1181" gradientTransform="matrix(1.4923 4.9654 -2.9574 0.8888 862.6959 -871.2392)">
				<stop  offset="0" style="stop-color:#BE8D51"/>
				<stop  offset="0.58" style="stop-color:#FBF2C9"/>
				<stop  offset="1" style="stop-color:#BE8D51"/>
			</linearGradient>
			<polygon class="st27" points="275.17,252.25 283.53,280.04 300.09,275.07 291.74,247.27 			"/>
		</g>
		<g>
			<defs>
				<path id="SVGID_68_" d="M235.98,247.29c0,0-0.47-11.69,3.04-20c3.52-8.3,9.96-15.74,21.38-21.84
					c6.88-3.67,11.03-5.33,13.25-6.06c-6.99,1.18-23.97,11-33.64,16.85c1.01,3.46-1.2,7.06-3.11,10.14
					c-1.54,2.48-3.7,8.72-4.22,12.71C234.26,243.79,235.98,247.29,235.98,247.29"/>
			</defs>
			<clipPath id="SVGID_69_">
				<use xlink:href="#SVGID_68_"  style="overflow:visible;"/>
			</clipPath>
			
				<linearGradient id="SVGID_70_" gradientUnits="userSpaceOnUse" x1="170.7593" y1="301.4828" x2="172.7752" y2="301.4828" gradientTransform="matrix(-7.3098 12.2977 -11.4327 -6.7956 4958.2295 155.2039)">
				<stop  offset="0" style="stop-color:#BE8D51"/>
				<stop  offset="0.45" style="stop-color:#FBF2C9"/>
				<stop  offset="1" style="stop-color:#BE8D51"/>
			</linearGradient>
			<polygon class="st28" points="243.39,181.39 211.66,234.79 262.96,265.29 294.7,211.89 			"/>
		</g>
		<g>
			<defs>
				<path id="SVGID_71_" d="M262,216.94c0,0-7.71,4.05-10.76,14.67c-3.05,10.62,1.6,18,1.93,23.45c0.33,5.43-1.37,9.27-2.63,11.14
					c-0.49,0.73-1.13,1.35-1.72,1.82c0.23-0.31,2.73-3.7,2.64-7.69c-0.11-4.2-4.84-10.37-6.82-15.32
					c-1.99-4.95-2.59-12.55-2.59-12.55l-0.13,0.17c0.07-0.13,0.11-0.17,0.11-0.17s2.19-8.75,8.03-13.79
					c4.38-3.78,10.74-6.78,13.65-8.05c-0.06,0.27-0.11,0.54-0.14,0.82c-0.18,1.67,0.02,3.1,0.37,4.28L262,216.94z"/>
			</defs>
			<clipPath id="SVGID_72_">
				<use xlink:href="#SVGID_71_"  style="overflow:visible;"/>
			</clipPath>
			
				<linearGradient id="SVGID_73_" gradientUnits="userSpaceOnUse" x1="171.6092" y1="299.2513" x2="173.7376" y2="299.2513" gradientTransform="matrix(-3.7436 14.0384 -7.7663 -2.071 3225.7637 -1573.7897)">
				<stop  offset="0" style="stop-color:#BE8D51"/>
				<stop  offset="0.45" style="stop-color:#FBF2C9"/>
				<stop  offset="1" style="stop-color:#BE8D51"/>
			</linearGradient>
			<polygon class="st29" points="243.38,205.14 227.61,264.22 262.47,273.51 278.23,214.43 			"/>
		</g>
		<g>
			<defs>
				<path id="SVGID_74_" d="M266.11,226.3c-0.54,3.46-0.92,8.74,0.02,14.97c1.72,11.19,15.18,24.51,15.71,29.84
					c0.53,5.33-0.35,12.82-2.71,17.81c-2.05,2.92-3.71,4.87-3.71,4.87s3.19-7.73-0.24-17.23c-3.41-9.49-15.09-19.44-18.01-26.26
					c-2.91-6.83-1.7-12.22-1.7-12.22s-0.08,0.06-0.19,0.23c0.37-2.38,1.11-4.83,2.34-7.22c2.9-5.65,7.05-9.81,8.75-11.36
					c0.17,0.16,0.27,0.25,0.27,0.25s-0.89,0.93-0.78,3.14C265.94,224.66,266.05,225.78,266.11,226.3"/>
			</defs>
			<clipPath id="SVGID_75_">
				<use xlink:href="#SVGID_74_"  style="overflow:visible;"/>
			</clipPath>
			
				<linearGradient id="SVGID_76_" gradientUnits="userSpaceOnUse" x1="172.7019" y1="298.1288" x2="174.8299" y2="298.1288" gradientTransform="matrix(-4.5433 18.0738 -9.5147 -2.3918 3897.2864 -2182.2949)">
				<stop  offset="0" style="stop-color:#BE8D51"/>
				<stop  offset="0.45" style="stop-color:#FBF2C9"/>
				<stop  offset="1" style="stop-color:#BE8D51"/>
			</linearGradient>
			<polygon class="st30" points="255.93,213.08 236.75,289.38 280.71,300.44 299.88,224.13 			"/>
		</g>
		<path class="st5" d="M302.35,219.25l-12.93-2.8l8.58,8.58l3.06,0.86l0.58,6.19l1.14-7.76l-3.08-0.61
			C299.71,223.71,301.64,221.07,302.35,219.25"/>
	</g>
	<g>
		<g>
			<path class="st31" d="M64.1,46.47c-0.98,9.5-1.47,14.25-2.44,23.74c2.99-1.18,4.49-1.76,7.5-2.88c-0.21,2.19-0.32,3.29-0.53,5.48
				c-5.63,2.1-8.44,3.21-14.01,5.52c1.03-9.76,2.08-19.52,3.12-29.29C60.27,48,61.55,47.48,64.1,46.47z"/>
			<path class="st31" d="M94.24,35.88c0.08,0,0.17-0.01,0.26-0.04c0.09-0.03,0.19-0.06,0.3-0.09c0.17-0.05,0.35-0.1,0.54-0.15
				c0.19-0.04,0.38-0.08,0.58-0.12c2.43-0.45,4.6,0.2,6.5,1.99c1.9,1.79,2.66,5.28,2.27,10.44c-0.06,0.74-0.2,1.71-0.42,2.91
				c-0.22,1.2-0.61,2.48-1.13,3.82c-0.77,1.97-1.94,3.95-3.55,5.91c-1.61,1.95-3.96,3.66-6.8,4.67c-0.03,0.01-0.07,0.02-0.13,0.04
				c-0.06,0.02-0.12,0.06-0.18,0.09c-0.02,0.01-0.08,0.02-0.13,0.04c-0.06,0.02-0.12,0.04-0.18,0.05c-0.62,0.19-1.28,0.33-1.97,0.41
				c-0.7,0.08-1.4,0.1-2.07,0.04c-1.65-0.16-3.18-1.01-4.5-2.46c-1.32-1.45-2.01-4.09-1.78-7.61c0.01-0.17,0.03-0.35,0.05-0.52
				c0.02-0.17,0-0.35,0-0.5c0.03-3.83,1.62-8.03,3.73-11.59c2.11-3.56,4.97-6,8.6-7.28C94.23,35.9,94.23,35.89,94.24,35.88z
				 M94.11,40.93c-1.32,0.53-2.33,1.43-3.05,2.69c-0.71,1.26-1.22,2.58-1.54,3.91c-0.21,0.89-0.38,1.75-0.48,2.56
				c-0.1,0.82-0.13,1.52-0.21,1.95c-0.02,0.13-0.07,0.28-0.08,0.44c-0.01,0.15-0.03,0.31-0.04,0.46c-0.04,0.49-0.05,1.01-0.03,1.58
				c0.02,0.57,0.08,1.15,0.17,1.74c0.2,1.22,0.61,2.28,1.21,3.17c0.6,0.88,1.45,1.18,2.53,0.86c0.06-0.02,0.11-0.03,0.15-0.05
				c0.04-0.01,0.08-0.02,0.11-0.03c1.35-0.49,2.57-1.77,3.52-3.57c0.95-1.81,1.55-4.29,1.8-7.46c0.03-0.38,0.05-0.78,0.07-1.18
				c0.02-0.4,0.03-0.81,0.03-1.21c0.01-1.76-0.28-3.31-0.83-4.62c-0.55-1.31-1.66-1.71-3.35-1.19
				C94.11,40.95,94.11,40.94,94.11,40.93z"/>
			<path class="st31" d="M119.26,56.5c0.15-2.28,0.22-3.42,0.37-5.69c0.45,0.32,0.95,0.55,1.5,0.68c0.55,0.13,1.14,0.16,1.71,0.15
				c0.2,0,0.42-0.01,0.64-0.03c0.22-0.03,0.44-0.06,0.65-0.11c1.08-0.24,2.03-0.71,2.87-1.39c0.84-0.69,1.41-1.56,1.52-2.48
				c0.01-0.05,0.01-0.1,0.01-0.13c0-0.04,0-0.08,0.01-0.13c0.04-0.74-0.25-1.34-0.86-1.81c-0.62-0.47-1.33-0.85-2.09-1.16
				c-0.54-0.22-1.07-0.43-1.57-0.61c-0.5-0.17-0.89-0.37-1.13-0.51c-1.2-0.68-2.29-1.52-2.87-2.62c-0.58-1.1-0.83-2.33-0.74-3.68
				c0.02-0.28,0.05-0.56,0.1-0.83c0.05-0.28,0.08-0.57,0.14-0.84c0.06-0.28,0.16-0.58,0.25-0.87c0.09-0.28,0.19-0.58,0.3-0.88
				c0.65-1.72,1.79-3.21,3.28-4.38c1.49-1.17,3.14-1.96,4.93-2.36c0.47-0.1,0.94-0.18,1.41-0.23c0.47-0.05,0.95-0.09,1.4-0.08
				c0.45,0.01,0.93,0.08,1.39,0.14c0.46,0.07,0.92,0.17,1.38,0.3c-0.12,2.14-0.19,3.2-0.31,5.34c-0.85-0.43-1.66-0.69-2.43-0.79
				c-0.77-0.1-1.48-0.11-2.08,0.01c-1.02,0.2-1.86,0.68-2.49,1.38c-0.63,0.69-0.96,1.41-1,2.14c-0.01,0.1-0.01,0.2,0,0.28
				c0.01,0.09,0.03,0.18,0.05,0.27c0.03,0.18,0.07,0.38,0.16,0.55c0.09,0.17,0.19,0.34,0.3,0.48c0.39,0.5,0.98,0.93,1.63,1.28
				c0.65,0.35,1.42,0.65,2.05,1c0.05,0.03,0.11,0.07,0.17,0.1c0.06,0.03,0.12,0.04,0.17,0.06c0.27,0.08,0.57,0.24,0.86,0.37
				c0.29,0.13,0.56,0.27,0.81,0.41c1.13,0.62,2.05,1.42,2.62,2.42c0.58,1,0.8,2.17,0.77,3.41c-0.01,0.51-0.08,1.09-0.23,1.68
				c-0.15,0.6-0.37,1.23-0.68,1.85c-0.1,0.19-0.2,0.4-0.3,0.61c-0.1,0.21-0.22,0.43-0.35,0.65c-0.79,1.37-1.91,2.61-3.37,3.73
				c-1.46,1.12-3.17,1.9-5.12,2.33c-0.9,0.2-1.84,0.31-2.81,0.34c-0.98,0.02-1.99-0.08-3.03-0.31
				C119.26,56.53,119.26,56.52,119.26,56.5z"/>
			<path class="st31" d="M185.2,18.46c2.49,9.39,5.04,18.76,7.64,28.12c-2.89,0.17-4.34,0.27-7.23,0.49
				c-0.38-1.88-0.57-2.82-0.95-4.7c-2.73,0.21-4.1,0.33-6.83,0.59c-0.61,1.97-0.92,2.95-1.54,4.92c-2.74,0.27-4.11,0.41-6.84,0.73
				c2.92-9.83,5.81-19.68,8.67-29.53C180.95,18.8,182.36,18.68,185.2,18.46z M183.66,38.28c-1.03-4.93-1.54-7.39-2.55-12.32
				c-0.97,5.1-1.46,7.65-2.45,12.75C180.66,38.53,181.66,38.44,183.66,38.28z"/>
			<path class="st31" d="M213.48,17.2c3.08,7.02,4.64,10.54,7.81,17.62c-0.02-7.05-0.02-10.58-0.03-17.63
				c2.55,0.02,3.83,0.04,6.38,0.1c0.05,9.56,0.12,19.11,0.19,28.67c-2.46-0.06-3.68-0.07-6.14-0.1c-3.34-6.84-4.99-10.24-8.24-17.02
				c-0.02,6.81-0.03,10.21-0.05,17.02c-2.75,0.03-4.12,0.06-6.87,0.13c0.07-9.56,0.14-19.11,0.22-28.67
				C209.43,17.25,210.78,17.23,213.48,17.2z"/>
			<path class="st31" d="M266.41,34.39c0.06,0.51,0.1,1.02,0.12,1.53c0.02,0.71,0.01,1.36-0.03,1.96c-0.04,0.6-0.07,1.13-0.13,1.54
				c-0.06,0.43-0.16,0.92-0.27,1.41c-0.37,1.63-0.92,2.98-1.59,3.91c-0.58,0.81-1.45,1.55-2.52,2.21c-1.07,0.66-2.53,0.96-4.25,1.04
				c-0.3,0.01-0.59,0.02-0.87,0c-0.27-0.02-0.53-0.05-0.78-0.07c-4.1-0.35-7.18-1.91-9.2-4.78c-2.02-2.86-3.17-5.98-3.56-9.28
				c-0.03-0.28-0.06-0.57-0.08-0.88c-0.02-0.3-0.04-0.61-0.04-0.91c-0.01-0.48,0-0.95,0.02-1.4c0.02-0.45,0.09-0.93,0.12-1.36
				c0.02-0.33,0.11-1.08,0.35-2.19c0.24-1.11,0.69-2.28,1.36-3.5c0.79-1.44,1.93-2.74,3.45-3.88c1.52-1.14,3.56-1.61,6.12-1.38
				c0.57,0.05,1.16,0.14,1.79,0.27c0.63,0.13,1.28,0.31,1.94,0.52c1.92,0.63,3.36,1.56,4.3,2.75c0.94,1.19,1.7,2.93,2.52,4.06
				c0.02,0.03,0.05,0.06,0.07,0.08c0.02,0.03,0.02,0.05,0.03,0.08c-2.52,0.55-3.79,0.83-6.32,1.42c-0.03-1.09-0.42-2-1.15-2.72
				c-0.74-0.73-1.58-1.16-2.5-1.25c-0.09-0.01-0.18-0.01-0.27-0.01c-0.09,0.01-0.19,0-0.27,0c-0.58,0-1.24,0.27-1.83,0.66
				c-0.59,0.39-1.06,1.02-1.44,1.79c-0.19,0.38-0.36,0.91-0.48,1.57c-0.12,0.66-0.22,1.35-0.29,2.04c-0.11,1.09-0.41,2.93-0.13,4.38
				c0.01,0.07,0.06,0.19,0.07,0.33c0.02,0.14,0.05,0.32,0.08,0.52c0.05,0.39,0.09,0.91,0.15,1.51c0.06,0.6,0.15,1.22,0.29,1.82
				c0.24,1.02,0.71,2,1.34,2.91c0.63,0.91,1.63,1.5,2.9,1.65c1.38,0.16,2.5-0.27,3.23-1.2c0.73-0.93,1.16-2.28,1.29-4.06
				c-1.87-0.2-2.8-0.3-4.67-0.48c-0.05-2.14-0.08-3.21-0.13-5.35c4.41,0.39,6.61,0.61,11.01,1.12
				C266.26,33.34,266.35,33.88,266.41,34.39z"/>
			<path class="st31" d="M280.16,21.81c5.47,0.82,8.21,1.28,13.66,2.28c0.11,2.16,0.17,3.24,0.28,5.41
				c-2.66-0.49-3.98-0.72-6.64-1.17c0.11,2.39,0.17,3.59,0.28,5.98c2.26,0.38,3.39,0.57,5.64,0.98c0.12,2.28,0.17,3.43,0.29,5.71
				c-2.26-0.41-3.4-0.61-5.66-0.99c0.12,2.51,0.18,3.77,0.29,6.28c2.69,0.45,4.04,0.69,6.73,1.18c0.11,2.16,0.17,3.25,0.28,5.41
				c-5.56-1.02-8.34-1.49-13.92-2.32C280.96,40.97,280.56,31.39,280.16,21.81z"/>
			<path class="st31" d="M314.73,28.48c0.61,9.38,0.91,14.07,1.53,23.46c3.09,0.73,4.64,1.11,7.72,1.91
				c0.15,2.17,0.23,3.26,0.38,5.43c-5.78-1.49-8.68-2.18-14.49-3.46c-0.59-9.62-1.17-19.23-1.75-28.85
				C310.76,27.56,312.08,27.86,314.73,28.48z"/>
			<path class="st31" d="M335.4,33.95c5.35,1.56,8.02,2.39,13.33,4.13c0.19,2.19,0.29,3.28,0.48,5.46
				c-2.59-0.85-3.88-1.26-6.48-2.07c0.2,2.41,0.3,3.62,0.5,6.03c2.21,0.68,3.3,1.03,5.5,1.75c0.2,2.31,0.3,3.46,0.5,5.77
				c-2.21-0.72-3.31-1.07-5.52-1.76c0.21,2.53,0.32,3.8,0.53,6.34c2.63,0.82,3.94,1.23,6.56,2.09c0.19,2.18,0.28,3.28,0.47,5.46
				c-5.41-1.78-8.13-2.62-13.58-4.21C336.92,53.28,336.17,43.61,335.4,33.95z"/>
			<path class="st31" d="M366.4,71.55c-0.22-2.3-0.33-3.45-0.56-5.75c0.5,0.61,1.05,1.15,1.63,1.63c0.58,0.48,1.18,0.87,1.75,1.2
				c0.2,0.12,0.42,0.25,0.64,0.36c0.22,0.11,0.43,0.2,0.63,0.28c1.04,0.4,1.93,0.5,2.65,0.29c0.73-0.21,1.15-0.82,1.11-1.68
				c0-0.05-0.01-0.1-0.01-0.14c0-0.04-0.01-0.08-0.01-0.13c-0.08-0.75-0.46-1.56-1.16-2.42c-0.7-0.87-1.46-1.69-2.28-2.49
				c-0.58-0.56-1.14-1.1-1.68-1.59c-0.53-0.49-0.94-0.92-1.22-1.23c-1.36-1.49-2.56-2.99-3.33-4.5c-0.77-1.51-1.22-2.95-1.35-4.31
				c-0.03-0.28-0.04-0.55-0.04-0.81c0-0.26-0.01-0.54,0.01-0.8c0.01-0.25,0.07-0.51,0.11-0.76c0.04-0.24,0.09-0.5,0.16-0.74
				c0.36-1.38,1.28-2.28,2.59-2.6c1.31-0.32,2.83-0.15,4.56,0.53c0.45,0.18,0.91,0.38,1.37,0.61c0.46,0.23,0.93,0.49,1.38,0.77
				c0.46,0.3,0.94,0.64,1.41,0.99c0.47,0.35,0.94,0.73,1.42,1.15c0.23,2.17,0.34,3.25,0.57,5.42c-0.92-0.97-1.77-1.74-2.55-2.31
				c-0.78-0.57-1.48-1-2.07-1.25c-0.97-0.4-1.75-0.41-2.26-0.07s-0.73,0.89-0.66,1.64c0.01,0.1,0.03,0.2,0.05,0.3
				c0.02,0.1,0.06,0.21,0.09,0.32c0.06,0.2,0.13,0.44,0.25,0.67c0.12,0.23,0.25,0.47,0.38,0.68c0.49,0.79,1.14,1.57,1.85,2.33
				c0.71,0.76,1.51,1.53,2.21,2.3c0.06,0.07,0.13,0.14,0.19,0.2c0.06,0.06,0.13,0.11,0.18,0.16c0.3,0.27,0.61,0.6,0.92,0.91
				c0.31,0.31,0.6,0.62,0.88,0.93c1.24,1.35,2.26,2.73,3,4.13c0.74,1.4,1.15,2.78,1.31,4.04c0.07,0.54,0.1,1.1,0.05,1.63
				c-0.05,0.53-0.17,1.06-0.37,1.53c-0.06,0.14-0.14,0.3-0.2,0.45c-0.07,0.16-0.14,0.32-0.24,0.48c-0.56,0.96-1.47,1.58-2.74,1.87
				c-1.27,0.29-2.85,0.07-4.73-0.66c-0.87-0.34-1.79-0.79-2.77-1.36c-0.98-0.57-2.01-1.29-3.11-2.17
				C366.4,71.57,366.4,71.56,366.4,71.55z"/>
		</g>
	</g>
	<g>
		<linearGradient id="SVGID_77_" gradientUnits="userSpaceOnUse" x1="126.8706" y1="430.2448" x2="126.8706" y2="384.3616">
			<stop  offset="0" style="stop-color:#8D6E4E"/>
			<stop  offset="0.25" style="stop-color:#EACA6A"/>
			<stop  offset="0.5" style="stop-color:#EECE6E"/>
			<stop  offset="0.75" style="stop-color:#EAEC9B"/>
			<stop  offset="0.99" style="stop-color:#C9A05C"/>
		</linearGradient>
		<path class="st32" d="M122.13,383.2h9.47v4.38h-4.59v4.83h3.89v4.64h-3.89v5.07h4.59v4.38h-9.47V383.2z"/>
		<linearGradient id="SVGID_78_" gradientUnits="userSpaceOnUse" x1="149.1042" y1="430.2448" x2="149.1042" y2="384.3616">
			<stop  offset="0" style="stop-color:#8D6E4E"/>
			<stop  offset="0.25" style="stop-color:#EACA6A"/>
			<stop  offset="0.5" style="stop-color:#EECE6E"/>
			<stop  offset="0.75" style="stop-color:#EAEC9B"/>
			<stop  offset="0.99" style="stop-color:#C9A05C"/>
		</linearGradient>
		<path class="st33" d="M145.7,383.2l3.63,15.3l3.43-15.3h4.83l-6.32,23.31h-3.89l-6.78-23.31H145.7z"/>
		<linearGradient id="SVGID_79_" gradientUnits="userSpaceOnUse" x1="174.0938" y1="430.2458" x2="174.0938" y2="384.3617">
			<stop  offset="0" style="stop-color:#8D6E4E"/>
			<stop  offset="0.25" style="stop-color:#EACA6A"/>
			<stop  offset="0.5" style="stop-color:#EECE6E"/>
			<stop  offset="0.75" style="stop-color:#EAEC9B"/>
			<stop  offset="0.99" style="stop-color:#C9A05C"/>
		</linearGradient>
		<path class="st34" d="M173.88,383.2c0.06,0.01,0.12,0.03,0.18,0.03c0.06,0,0.14,0,0.23,0c0.12,0,0.24,0,0.38,0.02
			c0.14,0.01,0.27,0.03,0.42,0.05c1.75,0.22,3.36,1.29,4.82,3.22c1.48,1.93,2.21,4.97,2.21,9.11c0,0.6-0.05,1.37-0.14,2.3
			c-0.11,0.93-0.3,1.9-0.6,2.88c-0.44,1.46-1.17,2.8-2.21,4.04c-1.04,1.22-2.56,1.94-4.58,2.17c-0.02,0-0.05,0-0.09,0
			c-0.04,0-0.09,0.02-0.12,0.03c-0.03,0-0.06,0-0.09,0c-0.04,0-0.09,0-0.14,0c-0.42,0-0.89-0.06-1.39-0.17
			c-0.48-0.12-0.98-0.29-1.48-0.51c-1.22-0.6-2.35-1.67-3.39-3.24c-1.05-1.57-1.66-3.83-1.79-6.79c0-0.14,0-0.27,0-0.41
			c0-0.13-0.01-0.27-0.03-0.42c0-3.33,0.66-6.18,1.97-8.54c1.31-2.36,3.25-3.61,5.83-3.73V383.2z M174.09,387.32
			c-0.92,0.11-1.61,0.59-2.05,1.45c-0.44,0.84-0.74,1.79-0.87,2.82c-0.11,0.68-0.17,1.34-0.2,1.99c-0.02,0.65-0.03,1.17-0.03,1.56
			c-0.02,0.09-0.03,0.21-0.03,0.33c0,0.12,0,0.24,0,0.38c0,0.39,0.03,0.81,0.09,1.29c0.04,0.47,0.12,0.96,0.23,1.47
			c0.23,1.07,0.57,2.05,1.07,2.94c0.48,0.87,1.1,1.32,1.85,1.36c0.05,0,0.09,0,0.12,0c0.03,0,0.04,0,0.08,0
			c0.96-0.14,1.73-0.81,2.3-2.08c0.59-1.25,0.87-3.15,0.87-5.69c0-0.31-0.02-0.63-0.02-0.96c-0.02-0.33-0.03-0.66-0.04-0.98
			c-0.11-1.46-0.39-2.8-0.87-4.02c-0.47-1.2-1.3-1.82-2.5-1.82V387.32z"/>
		<linearGradient id="SVGID_80_" gradientUnits="userSpaceOnUse" x1="197.0503" y1="430.2448" x2="197.0503" y2="384.3616">
			<stop  offset="0" style="stop-color:#8D6E4E"/>
			<stop  offset="0.25" style="stop-color:#EACA6A"/>
			<stop  offset="0.5" style="stop-color:#EECE6E"/>
			<stop  offset="0.75" style="stop-color:#EAEC9B"/>
			<stop  offset="0.99" style="stop-color:#C9A05C"/>
		</linearGradient>
		<path class="st35" d="M196.69,383.2v18.93h5.35v4.38h-9.97V383.2H196.69z"/>
		<linearGradient id="SVGID_81_" gradientUnits="userSpaceOnUse" x1="217.9285" y1="430.2474" x2="217.9285" y2="384.3616">
			<stop  offset="0" style="stop-color:#8D6E4E"/>
			<stop  offset="0.25" style="stop-color:#EACA6A"/>
			<stop  offset="0.5" style="stop-color:#EECE6E"/>
			<stop  offset="0.75" style="stop-color:#EAEC9B"/>
			<stop  offset="0.99" style="stop-color:#C9A05C"/>
		</linearGradient>
		<path class="st36" d="M215.63,383.2v16.53c0,1.32,0.26,2.2,0.78,2.59c0.53,0.39,1.16,0.59,1.9,0.59c0.95,0,1.51-0.24,1.69-0.69
			c0.17-0.47,0.26-0.96,0.26-1.51c0-0.03,0-0.07,0-0.09s0-0.04,0-0.09c0-0.05,0-0.09,0-0.15c0-0.06,0-0.12,0-0.17V383.2h4.35v17.48
			c0,0.06,0,0.11,0,0.13c0,0.03,0,0.08,0,0.12c0,0.03,0,0.07,0,0.11c0,0.03,0,0.06,0,0.11c0,1.79-0.35,3.09-1.04,3.91
			c-0.69,0.83-1.45,1.36-2.29,1.6c-0.54,0.16-1.05,0.27-1.57,0.3c-0.5,0.03-0.9,0.04-1.22,0.04c-0.03,0-0.08,0-0.11,0
			c-0.03,0-0.06,0-0.08,0c-0.02,0-0.05,0-0.08,0c-0.03,0-0.08,0-0.11,0c-0.38,0-0.83-0.02-1.37-0.04c-0.56-0.03-1.11-0.15-1.69-0.36
			c-0.92-0.29-1.78-0.9-2.54-1.84c-0.77-0.95-1.2-2.47-1.28-4.55V383.2H215.63z"/>
		<linearGradient id="SVGID_82_" gradientUnits="userSpaceOnUse" x1="240.3951" y1="430.2448" x2="240.3951" y2="384.3616">
			<stop  offset="0" style="stop-color:#8D6E4E"/>
			<stop  offset="0.25" style="stop-color:#EACA6A"/>
			<stop  offset="0.5" style="stop-color:#EECE6E"/>
			<stop  offset="0.75" style="stop-color:#EAEC9B"/>
			<stop  offset="0.99" style="stop-color:#C9A05C"/>
		</linearGradient>
		<path class="st37" d="M246.47,383.2v4.62h-3.67v18.69h-4.85v-18.69h-3.63v-4.62H246.47z"/>
		<linearGradient id="SVGID_83_" gradientUnits="userSpaceOnUse" x1="258.3296" y1="430.2448" x2="258.3296" y2="384.3616">
			<stop  offset="0" style="stop-color:#8D6E4E"/>
			<stop  offset="0.25" style="stop-color:#EACA6A"/>
			<stop  offset="0.5" style="stop-color:#EECE6E"/>
			<stop  offset="0.75" style="stop-color:#EAEC9B"/>
			<stop  offset="0.99" style="stop-color:#C9A05C"/>
		</linearGradient>
		<path class="st38" d="M260.52,383.2v23.31h-4.38V383.2H260.52z"/>
		<linearGradient id="SVGID_84_" gradientUnits="userSpaceOnUse" x1="278.463" y1="430.2458" x2="278.463" y2="384.3617">
			<stop  offset="0" style="stop-color:#8D6E4E"/>
			<stop  offset="0.25" style="stop-color:#EACA6A"/>
			<stop  offset="0.5" style="stop-color:#EECE6E"/>
			<stop  offset="0.75" style="stop-color:#EAEC9B"/>
			<stop  offset="0.99" style="stop-color:#C9A05C"/>
		</linearGradient>
		<path class="st39" d="M278.24,383.2c0.08,0.01,0.14,0.03,0.2,0.03c0.06,0,0.14,0,0.21,0c0.12,0,0.26,0,0.39,0.02
			c0.13,0.01,0.27,0.03,0.41,0.05c1.75,0.22,3.36,1.29,4.83,3.22c1.46,1.93,2.2,4.97,2.2,9.11c0,0.6-0.05,1.37-0.14,2.3
			c-0.09,0.93-0.29,1.9-0.6,2.88c-0.44,1.46-1.16,2.8-2.2,4.04c-1.04,1.22-2.58,1.94-4.58,2.17c-0.03,0-0.06,0-0.11,0
			c-0.03,0-0.08,0.02-0.12,0.03c-0.01,0-0.04,0-0.09,0c-0.04,0-0.07,0-0.12,0c-0.44,0-0.89-0.06-1.39-0.17
			c-0.5-0.12-0.99-0.29-1.49-0.51c-1.21-0.6-2.33-1.67-3.39-3.24c-1.04-1.57-1.64-3.83-1.79-6.79c0-0.14,0-0.27,0-0.41
			c0-0.13,0-0.27-0.03-0.42c0-3.33,0.66-6.18,1.97-8.54c1.33-2.36,3.27-3.61,5.83-3.73V383.2z M278.47,387.32
			c-0.93,0.11-1.61,0.59-2.05,1.45c-0.45,0.84-0.74,1.79-0.89,2.82c-0.11,0.68-0.17,1.34-0.18,1.99c-0.02,0.65-0.03,1.17-0.03,1.56
			c-0.01,0.09-0.03,0.21-0.03,0.33c0,0.12,0,0.24,0,0.38c0,0.39,0.03,0.81,0.08,1.29c0.04,0.47,0.14,0.96,0.23,1.47
			c0.23,1.07,0.59,2.05,1.07,2.94c0.48,0.87,1.1,1.32,1.87,1.36c0.05,0,0.08,0,0.11,0c0.03,0,0.06,0,0.08,0
			c0.96-0.14,1.75-0.81,2.32-2.08c0.57-1.25,0.86-3.15,0.86-5.69c0-0.31,0-0.63-0.02-0.96c-0.01-0.33-0.03-0.66-0.04-0.98
			c-0.11-1.46-0.39-2.8-0.86-4.02c-0.48-1.2-1.31-1.82-2.5-1.82V387.32z"/>
		<linearGradient id="SVGID_85_" gradientUnits="userSpaceOnUse" x1="303.6177" y1="430.2448" x2="303.6177" y2="384.3616">
			<stop  offset="0" style="stop-color:#8D6E4E"/>
			<stop  offset="0.25" style="stop-color:#EACA6A"/>
			<stop  offset="0.5" style="stop-color:#EECE6E"/>
			<stop  offset="0.75" style="stop-color:#EAEC9B"/>
			<stop  offset="0.99" style="stop-color:#C9A05C"/>
		</linearGradient>
		<path class="st40" d="M301.07,383.2l5.33,14.33V383.2h4.38v23.31h-4.13l-5.59-13.84v13.84h-4.62V383.2H301.07z"/>
	</g>
	<g>
		<path class="st41" d="M195.6,438.28c0-0.13-0.02-0.27-0.02-0.39c0-1.07,0.26-1.94,0.75-2.62c0.51-0.68,1.33-1.02,2.45-1.02
			c1.07,0,1.84,0.27,2.29,0.8c0.47,0.53,0.74,1.13,0.84,1.77c0.01,0.1,0.03,0.21,0.03,0.33c0.01,0.11,0.01,0.22,0.01,0.33
			c0.02,0.22,0,0.44-0.03,0.64c-0.01,0.2-0.06,0.38-0.12,0.55c-0.03,0.13-0.06,0.28-0.11,0.41c-0.04,0.13-0.09,0.28-0.15,0.42
			c-0.15,0.41-0.32,0.8-0.53,1.19c-0.2,0.39-0.39,0.77-0.59,1.12c-0.35,0.63-0.66,1.16-0.96,1.65c-0.3,0.47-0.48,0.8-0.57,1.02
			l2.91-0.02v2.15h-6.55c0.21-0.35,0.45-0.75,0.71-1.21c0.27-0.44,0.53-0.91,0.8-1.39c0.02-0.04,0.05-0.08,0.08-0.13
			c0.02-0.04,0.05-0.07,0.06-0.13c0.42-0.73,0.81-1.44,1.19-2.12c0.36-0.68,0.65-1.19,0.81-1.57c0.29-0.5,0.5-0.97,0.62-1.43
			c0.12-0.44,0.18-0.84,0.18-1.17c0-0.44-0.08-0.8-0.24-1.05c-0.18-0.25-0.41-0.39-0.68-0.39c-0.35,0-0.57,0.17-0.71,0.52
			c-0.14,0.32-0.21,0.7-0.24,1.09c0,0.04,0,0.07,0,0.1c0,0.04,0,0.07,0,0.11c0,0.16,0.02,0.3,0.03,0.44
			c0.01,0.14,0.03,0.28,0.03,0.39l-2.27-0.02C195.63,438.53,195.62,438.4,195.6,438.28z"/>
		<path class="st41" d="M207.11,440.42c0-1.56,0.24-2.99,0.72-4.25c0.47-1.29,1.37-1.91,2.7-1.91c0.02,0,0.02,0,0.03,0
			c0.02,0,0.03,0,0.03,0c0.02,0,0.03,0,0.05,0c0,0,0.02,0,0.03,0c1.02-0.02,1.78,0.44,2.24,1.35c0.47,0.93,0.77,1.93,0.93,3.02
			c0.03,0.33,0.06,0.68,0.08,1c0.02,0.33,0.03,0.65,0.03,0.94c0,1.71-0.26,3.19-0.75,4.44c-0.51,1.25-1.4,1.88-2.67,1.88
			c-1.07,0-1.85-0.47-2.33-1.39c-0.5-0.94-0.81-1.97-0.96-3.1c-0.05-0.32-0.08-0.65-0.09-1c-0.01-0.32-0.03-0.64-0.03-0.93V440.42z
			 M209.38,440.3c0.01,0.16,0.03,0.31,0.03,0.45c0,0.14,0.02,0.29,0.03,0.42c0.05,1.1,0.12,1.96,0.24,2.6
			c0.11,0.65,0.39,0.96,0.84,0.96c0.39,0,0.66-0.25,0.83-0.75c0.15-0.5,0.26-1.05,0.3-1.66c0-0.26,0.02-0.54,0.02-0.8s0-0.52,0-0.72
			c0-0.08,0-0.12,0-0.19c0-0.06,0-0.12,0-0.16c0-0.23-0.02-0.47-0.02-0.75c-0.02-0.3-0.03-0.58-0.08-0.87
			c-0.04-0.58-0.15-1.11-0.32-1.58c-0.17-0.48-0.41-0.71-0.74-0.71c-0.33,0-0.57,0.23-0.74,0.7c-0.15,0.46-0.27,0.97-0.33,1.52
			c-0.02,0.3-0.05,0.58-0.06,0.84c0,0.27-0.01,0.5-0.01,0.72V440.3z"/>
		<path class="st41" d="M221.25,436.51h-1.14v-2.14h3.55v12.24h-2.41V436.51z"/>
		<path class="st41" d="M237.65,434.49l-4.41,12.12h-2.53l3.79-10.1h-3.28v-2.03H237.65z"/>
	</g>
</g>
</svg>
